  0
SECTION
  2
HEADER
  9
$ACADVER
  1
AC1006
  9
$EXTMIN
 10
0.000000
 20
0.000000
 30
0.000000
  9
$EXTMAX
 10
414.000000
 20
240.000000
 30
0.000000
  0
ENDSEC
  0
SECTION
  2
ENTITIES
  0
POLYLINE
  8
0
 66
1
 70
1
  0
VERTEX
  8
0
 10
0.000000
 20
120.000000
 42
0.000000
  0
VERTEX
  8
0
 10
0.000000
 20
0.000000
 42
0.000000
  0
VERTEX
  8
0
 10
207.000000
 20
0.000000
 42
0.000000
  0
VERTEX
  8
0
 10
414.000000
 20
0.000000
 42
0.000000
  0
VERTEX
  8
0
 10
414.000000
 20
120.000000
 42
0.000000
  0
VERTEX
  8
0
 10
414.000000
 20
240.000000
 42
0.000000
  0
VERTEX
  8
0
 10
207.000000
 20
240.000000
 42
0.000000
  0
VERTEX
  8
0
 10
0.000000
 20
240.000000
 42
0.000000
  0
SEQEND
  0
POLYLINE
  8
0
 66
1
 70
1
  0
VERTEX
  8
0
 10
151.394499
 20
174.700410
 42
-0.000540
  0
VERTEX
  8
0
 10
160.905527
 20
158.955743
 42
-0.000858
  0
VERTEX
  8
0
 10
169.006838
 20
145.459642
 42
-0.000167
  0
VERTEX
  8
0
 10
176.124892
 20
133.546290
 42
-0.042983
  0
VERTEX
  8
0
 10
176.657403
 20
132.450410
 42
-0.510251
  0
VERTEX
  8
0
 10
176.087551
 20
131.575337
 42
-0.005588
  0
VERTEX
  8
0
 10
167.808574
 20
131.254208
 42
-0.006150
  0
VERTEX
  8
0
 10
154.127626
 20
131.044954
 42
-0.000749
  0
VERTEX
  8
0
 10
124.106989
 20
131.000000
 42
-0.000800
  0
VERTEX
  8
0
 10
103.743080
 20
131.032563
 42
-0.001334
  0
VERTEX
  8
0
 10
86.600178
 20
131.133114
 42
-0.000072
  0
VERTEX
  8
0
 10
71.184653
 20
131.266864
 42
-0.411633
  0
VERTEX
  8
0
 10
71.000000
 20
131.453153
 42
-0.134792
  0
VERTEX
  8
0
 10
71.092879
 20
131.791422
 42
-0.000177
  0
VERTEX
  8
0
 10
74.625977
 20
137.735391
 42
-0.001510
  0
VERTEX
  8
0
 10
78.611263
 20
144.388885
 42
-0.000928
  0
VERTEX
  8
0
 10
83.343753
 20
152.203153
 42
0.000067
  0
VERTEX
  8
0
 10
88.990667
 20
161.491180
 42
0.000038
  0
VERTEX
  8
0
 10
95.806133
 20
172.706551
 42
0.000038
  0
VERTEX
  8
0
 10
102.659853
 20
183.988762
 42
0.000064
  0
VERTEX
  8
0
 10
108.435094
 20
193.500000
 42
-0.000297
  0
VERTEX
  8
0
 10
120.647243
 20
213.591059
 42
-0.018111
  0
VERTEX
  8
0
 10
122.961156
 20
217.100024
 42
-0.205722
  0
VERTEX
  8
0
 10
124.238641
 20
217.875930
 42
-0.285815
  0
VERTEX
  8
0
 10
125.431322
 20
217.347958
 42
-0.012506
  0
VERTEX
  8
0
 10
126.364056
 20
215.899957
 42
-0.000098
  0
VERTEX
  8
0
 10
133.576454
 20
204.057958
 42
-0.000359
  0
VERTEX
  8
0
 10
141.833970
 20
190.472052
 42
-0.000231
  0
SEQEND
  0
POLYLINE
  8
0
 66
1
 70
1
  0
VERTEX
  8
0
 10
205.376468
 20
170.750000
 42
-0.053687
  0
VERTEX
  8
0
 10
209.398544
 20
166.240387
 42
-0.004781
  0
VERTEX
  8
0
 10
218.141429
 20
153.770670
 42
-0.002312
  0
VERTEX
  8
0
 10
227.191530
 20
140.465180
 42
-0.149262
  0
VERTEX
  8
0
 10
228.000000
 20
137.817301
 42
-0.093114
  0
VERTEX
  8
0
 10
227.830266
 20
136.913774
 42
-0.035287
  0
VERTEX
  8
0
 10
227.278977
 20
135.748605
 42
-0.033444
  0
VERTEX
  8
0
 10
226.484755
 20
134.534615
 42
-0.034813
  0
VERTEX
  8
0
 10
225.545455
 20
133.454545
 42
-0.056551
  0
VERTEX
  8
0
 10
223.853821
 20
132.107676
 42
-0.085178
  0
VERTEX
  8
0
 10
222.114156
 20
131.393617
 42
-0.047431
  0
VERTEX
  8
0
 10
219.576411
 20
131.075374
 42
-0.007491
  0
VERTEX
  8
0
 10
214.545455
 20
131.000000
 42
0.000000
  0
VERTEX
  8
0
 10
206.000000
 20
131.000000
 42
0.000000
  0
VERTEX
  8
0
 10
206.000000
 20
135.500000
 42
-0.012019
  0
VERTEX
  8
0
 10
206.070142
 20
138.417500
 42
-0.154453
  0
VERTEX
  8
0
 10
206.444444
 20
139.428571
 42
-0.206324
  0
VERTEX
  8
0
 10
207.290758
 20
139.894012
 42
-0.023974
  0
VERTEX
  8
0
 10
209.500000
 20
140.000000
 42
0.013777
  0
VERTEX
  8
0
 10
210.841811
 20
140.036979
 42
0.022630
  0
VERTEX
  8
0
 10
211.971875
 20
140.150769
 42
0.018720
  0
VERTEX
  8
0
 10
212.838163
 20
140.311131
 42
0.351016
  0
VERTEX
  8
0
 10
213.000000
 20
140.513255
 42
0.143688
  0
VERTEX
  8
0
 10
212.894573
 20
140.872540
 42
0.001491
  0
VERTEX
  8
0
 10
211.457812
 20
143.095317
 42
0.004632
  0
VERTEX
  8
0
 10
209.762278
 20
145.649280
 42
0.002974
  0
VERTEX
  8
0
 10
207.750000
 20
148.582512
 42
0.000000
  0
VERTEX
  8
0
 10
202.500000
 20
156.138515
 42
0.000000
  0
VERTEX
  8
0
 10
202.220123
 20
143.569257
 42
0.000000
  0
VERTEX
  8
0
 10
201.940246
 20
131.000000
 42
0.000000
  0
VERTEX
  8
0
 10
195.970123
 20
131.000000
 42
0.000000
  0
VERTEX
  8
0
 10
190.000000
 20
131.000000
 42
0.000000
  0
VERTEX
  8
0
 10
190.000000
 20
148.049660
 42
-0.003842
  0
VERTEX
  8
0
 10
190.067698
 20
156.858774
 42
-0.015475
  0
VERTEX
  8
0
 10
190.316780
 20
162.232694
 42
-0.024769
  0
VERTEX
  8
0
 10
190.771007
 20
165.795943
 42
-0.075375
  0
VERTEX
  8
0
 10
191.552360
 20
168.101253
 42
-0.115086
  0
VERTEX
  8
0
 10
194.160347
 20
171.157560
 42
-0.111941
  0
VERTEX
  8
0
 10
197.877198
 20
172.783030
 42
-0.113018
  0
VERTEX
  8
0
 10
201.902492
 20
172.638973
 42
-0.119148
  0
SEQEND
  0
POLYLINE
  8
0
 66
1
 70
1
  0
VERTEX
  8
0
 10
352.387004
 20
172.042961
 42
-0.136970
  0
VERTEX
  8
0
 10
355.296839
 20
169.896443
 42
-0.108719
  0
VERTEX
  8
0
 10
356.989869
 20
166.359101
 42
-0.049446
  0
VERTEX
  8
0
 10
357.804905
 20
160.172845
 42
-0.008046
  0
VERTEX
  8
0
 10
358.000000
 20
148.049660
 42
0.000000
  0
VERTEX
  8
0
 10
358.000000
 20
131.000000
 42
0.000000
  0
VERTEX
  8
0
 10
352.029877
 20
131.000000
 42
0.000000
  0
VERTEX
  8
0
 10
346.059754
 20
131.000000
 42
0.000000
  0
VERTEX
  8
0
 10
345.779877
 20
143.569257
 42
0.000000
  0
VERTEX
  8
0
 10
345.500000
 20
156.138515
 42
0.000000
  0
VERTEX
  8
0
 10
340.250000
 20
148.582512
 42
0.002974
  0
VERTEX
  8
0
 10
338.237722
 20
145.649280
 42
0.004632
  0
VERTEX
  8
0
 10
336.542188
 20
143.095317
 42
0.001491
  0
VERTEX
  8
0
 10
335.105427
 20
140.872540
 42
0.143688
  0
VERTEX
  8
0
 10
335.000000
 20
140.513255
 42
0.351016
  0
VERTEX
  8
0
 10
335.161837
 20
140.311131
 42
0.018720
  0
VERTEX
  8
0
 10
336.028125
 20
140.150769
 42
0.022630
  0
VERTEX
  8
0
 10
337.158189
 20
140.036979
 42
0.013777
  0
VERTEX
  8
0
 10
338.500000
 20
140.000000
 42
-0.023974
  0
VERTEX
  8
0
 10
340.709242
 20
139.894012
 42
-0.206324
  0
VERTEX
  8
0
 10
341.555556
 20
139.428571
 42
-0.154453
  0
VERTEX
  8
0
 10
341.929858
 20
138.417500
 42
-0.012019
  0
VERTEX
  8
0
 10
342.000000
 20
135.500000
 42
0.000000
  0
VERTEX
  8
0
 10
342.000000
 20
131.000000
 42
0.000000
  0
VERTEX
  8
0
 10
333.610784
 20
131.000000
 42
-0.009353
  0
VERTEX
  8
0
 10
329.237004
 20
131.081819
 42
-0.033460
  0
VERTEX
  8
0
 10
326.457149
 20
131.372825
 42
-0.052840
  0
VERTEX
  8
0
 10
324.501964
 20
131.928237
 42
-0.074713
  0
VERTEX
  8
0
 10
322.944117
 20
132.844168
 42
-0.159130
  0
VERTEX
  8
0
 10
321.006205
 20
135.837683
 42
-0.151789
  0
VERTEX
  8
0
 10
321.159852
 20
139.461976
 42
-0.059299
  0
VERTEX
  8
0
 10
323.892966
 20
144.949337
 42
-0.008293
  0
VERTEX
  8
0
 10
331.034116
 20
155.451648
 42
-0.004313
  0
VERTEX
  8
0
 10
335.152767
 20
161.192098
 42
-0.005980
  0
VERTEX
  8
0
 10
338.950008
 20
166.260943
 42
-0.003846
  0
VERTEX
  8
0
 10
342.214631
 20
170.444876
 42
-0.072500
  0
VERTEX
  8
0
 10
343.423289
 20
171.583930
 42
-0.072936
  0
VERTEX
  8
0
 10
345.317734
 20
172.535302
 42
-0.067256
  0
VERTEX
  8
0
 10
347.459341
 20
172.937134
 42
-0.060611
  0
VERTEX
  8
0
 10
349.826396
 20
172.771386
 42
-0.043111
  0
SEQEND
  0
POLYLINE
  8
0
 66
1
 70
1
  0
VERTEX
  8
0
 10
265.000000
 20
168.000000
 42
0.000000
  0
VERTEX
  8
0
 10
265.000000
 20
164.000000
 42
0.000000
  0
VERTEX
  8
0
 10
253.500000
 20
164.000000
 42
0.000000
  0
VERTEX
  8
0
 10
242.000000
 20
164.000000
 42
0.000000
  0
VERTEX
  8
0
 10
242.000000
 20
160.500000
 42
0.000000
  0
VERTEX
  8
0
 10
242.000000
 20
157.000000
 42
0.000000
  0
VERTEX
  8
0
 10
252.000000
 20
157.000000
 42
0.000000
  0
VERTEX
  8
0
 10
262.000000
 20
157.000000
 42
0.000000
  0
VERTEX
  8
0
 10
262.000000
 20
153.000000
 42
0.000000
  0
VERTEX
  8
0
 10
262.000000
 20
149.000000
 42
0.000000
  0
VERTEX
  8
0
 10
252.000000
 20
149.000000
 42
0.000000
  0
VERTEX
  8
0
 10
242.000000
 20
149.000000
 42
0.000000
  0
VERTEX
  8
0
 10
242.000000
 20
144.500000
 42
0.000000
  0
VERTEX
  8
0
 10
242.000000
 20
140.000000
 42
0.000000
  0
VERTEX
  8
0
 10
253.557498
 20
140.000000
 42
0.000000
  0
VERTEX
  8
0
 10
265.114996
 20
140.000000
 42
0.000000
  0
VERTEX
  8
0
 10
264.807498
 20
135.750000
 42
0.000000
  0
VERTEX
  8
0
 10
264.500000
 20
131.500000
 42
0.000000
  0
VERTEX
  8
0
 10
249.108364
 20
131.223191
 42
-0.003330
  0
VERTEX
  8
0
 10
240.466687
 20
131.125333
 42
-0.021487
  0
VERTEX
  8
0
 10
236.107476
 20
131.292383
 42
-0.044225
  0
VERTEX
  8
0
 10
233.497490
 20
131.739498
 42
-0.119947
  0
VERTEX
  8
0
 10
231.858364
 20
132.628178
 42
-0.138480
  0
VERTEX
  8
0
 10
230.823351
 20
134.278968
 42
-0.048670
  0
VERTEX
  8
0
 10
230.296964
 20
137.052634
 42
-0.020273
  0
VERTEX
  8
0
 10
230.051410
 20
141.984706
 42
-0.002301
  0
VERTEX
  8
0
 10
230.000000
 20
153.154988
 42
0.000000
  0
VERTEX
  8
0
 10
230.000000
 20
172.000000
 42
0.000000
  0
VERTEX
  8
0
 10
247.500000
 20
172.000000
 42
0.000000
  0
VERTEX
  8
0
 10
265.000000
 20
172.000000
 42
0.000000
  0
SEQEND
  0
POLYLINE
  8
0
 66
1
 70
1
  0
VERTEX
  8
0
 10
280.000000
 20
156.000000
 42
0.000000
  0
VERTEX
  8
0
 10
280.000000
 20
140.000000
 42
0.000000
  0
VERTEX
  8
0
 10
290.057498
 20
140.000000
 42
0.000000
  0
VERTEX
  8
0
 10
300.114996
 20
140.000000
 42
0.000000
  0
VERTEX
  8
0
 10
299.807498
 20
135.750000
 42
0.000000
  0
VERTEX
  8
0
 10
299.500000
 20
131.500000
 42
0.000000
  0
VERTEX
  8
0
 10
286.238640
 20
131.220896
 42
-0.006624
  0
VERTEX
  8
0
 10
280.675562
 20
131.177527
 42
-0.011498
  0
VERTEX
  8
0
 10
276.057941
 20
131.308920
 42
-0.010191
  0
VERTEX
  8
0
 10
272.443988
 20
131.568931
 42
-0.100131
  0
VERTEX
  8
0
 10
270.988640
 20
132.006080
 42
-0.182563
  0
VERTEX
  8
0
 10
269.852441
 20
133.306114
 42
-0.065225
  0
VERTEX
  8
0
 10
269.289211
 20
135.746383
 42
-0.022272
  0
VERTEX
  8
0
 10
269.045363
 20
140.428732
 42
-0.001874
  0
VERTEX
  8
0
 10
269.000000
 20
152.535184
 42
0.000000
  0
VERTEX
  8
0
 10
269.000000
 20
172.000000
 42
0.000000
  0
VERTEX
  8
0
 10
274.500000
 20
172.000000
 42
0.000000
  0
VERTEX
  8
0
 10
280.000000
 20
172.000000
 42
0.000000
  0
SEQEND
  0
POLYLINE
  8
0
 66
1
 70
1
  0
VERTEX
  8
0
 10
328.000000
 20
168.000000
 42
0.000000
  0
VERTEX
  8
0
 10
328.000000
 20
164.000000
 42
0.000000
  0
VERTEX
  8
0
 10
322.000000
 20
164.000000
 42
0.000000
  0
VERTEX
  8
0
 10
316.000000
 20
164.000000
 42
0.000000
  0
VERTEX
  8
0
 10
315.984687
 20
148.750000
 42
-0.005071
  0
VERTEX
  8
0
 10
315.918499
 20
142.811525
 42
-0.007450
  0
VERTEX
  8
0
 10
315.729638
 20
137.594567
 42
-0.003946
  0
VERTEX
  8
0
 10
315.470525
 20
133.206105
 42
-0.125224
  0
VERTEX
  8
0
 10
315.137939
 20
132.188950
 42
-0.154438
  0
VERTEX
  8
0
 10
314.477787
 20
131.633845
 42
-0.055074
  0
VERTEX
  8
0
 10
313.281295
 20
131.286315
 42
-0.040409
  0
VERTEX
  8
0
 10
311.600982
 20
131.131512
 42
-0.018614
  0
VERTEX
  8
0
 10
309.403252
 20
131.188950
 42
0.000000
  0
VERTEX
  8
0
 10
304.500000
 20
131.500000
 42
0.000000
  0
VERTEX
  8
0
 10
304.225229
 20
147.750000
 42
0.000000
  0
VERTEX
  8
0
 10
303.950457
 20
164.000000
 42
0.000000
  0
VERTEX
  8
0
 10
297.975229
 20
164.000000
 42
0.000000
  0
VERTEX
  8
0
 10
292.000000
 20
164.000000
 42
0.000000
  0
VERTEX
  8
0
 10
292.000000
 20
168.000000
 42
0.000000
  0
VERTEX
  8
0
 10
292.000000
 20
172.000000
 42
0.000000
  0
VERTEX
  8
0
 10
310.000000
 20
172.000000
 42
0.000000
  0
VERTEX
  8
0
 10
328.000000
 20
172.000000
 42
0.000000
  0
SEQEND
  0
POLYLINE
  8
0
 66
1
 70
1
  0
VERTEX
  8
0
 10
16.500000
 20
107.416667
 42
-0.004601
  0
VERTEX
  8
0
 10
16.445877
 20
101.535072
 42
-0.029545
  0
VERTEX
  8
0
 10
16.215649
 20
98.569444
 42
-0.069549
  0
VERTEX
  8
0
 10
15.773480
 20
97.004827
 42
-0.297460
  0
VERTEX
  8
0
 10
15.000000
 20
96.500000
 42
-0.284554
  0
VERTEX
  8
0
 10
14.226900
 20
96.978742
 42
-0.071039
  0
VERTEX
  8
0
 10
13.738311
 20
98.452865
 42
-0.031767
  0
VERTEX
  8
0
 10
13.421278
 20
101.204843
 42
-0.005537
  0
VERTEX
  8
0
 10
13.211631
 20
106.428821
 42
-0.006416
  0
VERTEX
  8
0
 10
13.099314
 20
113.360117
 42
-0.041866
  0
VERTEX
  8
0
 10
13.378567
 20
116.829730
 42
-0.129313
  0
VERTEX
  8
0
 10
14.085705
 20
118.408146
 42
-0.313218
  0
VERTEX
  8
0
 10
15.250526
 20
118.749825
 42
-0.263496
  0
VERTEX
  8
0
 10
15.852311
 20
118.082451
 42
-0.027176
  0
VERTEX
  8
0
 10
16.211848
 20
115.911798
 42
-0.021292
  0
VERTEX
  8
0
 10
16.436393
 20
112.576816
 42
-0.006163
  0
SEQEND
  0
POLYLINE
  8
0
 66
1
 70
1
  0
VERTEX
  8
0
 10
31.628797
 20
111.540961
 42
0.000000
  0
VERTEX
  8
0
 10
36.500000
 20
104.081923
 42
0.000000
  0
VERTEX
  8
0
 10
37.000000
 20
111.281538
 42
-0.009044
  0
VERTEX
  8
0
 10
37.331524
 20
115.063999
 42
-0.046223
  0
VERTEX
  8
0
 10
37.745878
 20
117.130424
 42
-0.098026
  0
VERTEX
  8
0
 10
38.350805
 20
118.276382
 42
-0.177265
  0
VERTEX
  8
0
 10
39.250000
 20
118.813900
 42
-0.279180
  0
VERTEX
  8
0
 10
40.182116
 20
118.466665
 42
-0.129531
  0
VERTEX
  8
0
 10
40.719385
 20
117.237495
 42
-0.035292
  0
VERTEX
  8
0
 10
40.954169
 20
114.445427
 42
-0.003335
  0
VERTEX
  8
0
 10
41.000000
 20
107.573324
 42
-0.004505
  0
VERTEX
  8
0
 10
40.945091
 20
101.478779
 42
-0.026205
  0
VERTEX
  8
0
 10
40.719141
 20
98.275332
 42
-0.054439
  0
VERTEX
  8
0
 10
40.304801
 20
96.518287
 42
-0.317694
  0
VERTEX
  8
0
 10
39.571429
 20
96.000000
 42
-0.148929
  0
VERTEX
  8
0
 10
38.009657
 20
96.475737
 42
-0.062864
  0
VERTEX
  8
0
 10
36.339658
 20
97.931396
 42
-0.035865
  0
VERTEX
  8
0
 10
34.280058
 20
100.603865
 42
-0.009002
  0
VERTEX
  8
0
 10
31.323913
 20
105.247516
 42
0.000000
  0
VERTEX
  8
0
 10
27.500000
 20
111.500000
 42
0.000000
  0
VERTEX
  8
0
 10
27.000000
 20
104.000000
 42
-0.008710
  0
VERTEX
  8
0
 10
26.683368
 20
100.238869
 42
-0.039820
  0
VERTEX
  8
0
 10
26.288889
 20
98.083333
 42
-0.082606
  0
VERTEX
  8
0
 10
25.753743
 20
96.902290
 42
-0.250161
  0
VERTEX
  8
0
 10
25.000000
 20
96.500000
 42
-0.284554
  0
VERTEX
  8
0
 10
24.226900
 20
96.978742
 42
-0.071039
  0
VERTEX
  8
0
 10
23.738311
 20
98.452865
 42
-0.031767
  0
VERTEX
  8
0
 10
23.421278
 20
101.204843
 42
-0.005537
  0
VERTEX
  8
0
 10
23.211631
 20
106.428821
 42
-0.005089
  0
VERTEX
  8
0
 10
23.138083
 20
110.328401
 42
-0.007028
  0
VERTEX
  8
0
 10
23.156897
 20
113.829147
 42
-0.004646
  0
VERTEX
  8
0
 10
23.240976
 20
116.755611
 42
-0.082283
  0
VERTEX
  8
0
 10
23.430246
 20
117.678821
 42
-0.249482
  0
VERTEX
  8
0
 10
24.597043
 20
118.692734
 42
-0.220750
  0
VERTEX
  8
0
 10
26.186486
 20
118.357100
 42
-0.071895
  0
VERTEX
  8
0
 10
28.452426
 20
116.087609
 42
-0.015638
  0
SEQEND
  0
POLYLINE
  8
0
 66
1
 70
1
  0
VERTEX
  8
0
 10
57.777494
 20
117.443296
 42
-0.101412
  0
VERTEX
  8
0
 10
59.147540
 20
115.995032
 42
-0.095503
  0
VERTEX
  8
0
 10
59.874197
 20
114.093912
 42
-0.093373
  0
VERTEX
  8
0
 10
59.850273
 20
112.021865
 42
-0.091906
  0
VERTEX
  8
0
 10
59.075438
 20
110.087821
 42
0.086133
  0
VERTEX
  8
0
 10
58.786984
 20
109.391044
 42
0.100666
  0
VERTEX
  8
0
 10
58.772685
 20
108.676394
 42
0.091659
  0
VERTEX
  8
0
 10
59.044460
 20
107.961868
 42
0.059854
  0
VERTEX
  8
0
 10
59.590751
 20
107.266392
 42
-0.130198
  0
VERTEX
  8
0
 10
60.630966
 20
105.476530
 42
-0.071622
  0
VERTEX
  8
0
 10
60.947678
 20
102.946226
 42
-0.071025
  0
VERTEX
  8
0
 10
60.536520
 20
100.403162
 42
-0.121415
  0
VERTEX
  8
0
 10
59.430073
 20
98.572930
 42
-0.142658
  0
VERTEX
  8
0
 10
55.654169
 20
96.500359
 42
-0.118912
  0
VERTEX
  8
0
 10
51.061163
 20
96.583603
 42
-0.134056
  0
VERTEX
  8
0
 10
47.396307
 20
98.688572
 42
-0.198267
  0
VERTEX
  8
0
 10
46.000000
 20
102.071429
 42
-0.142885
  0
VERTEX
  8
0
 10
46.409126
 20
103.473861
 42
-0.296144
  0
VERTEX
  8
0
 10
47.404020
 20
103.926855
 42
-0.177281
  0
VERTEX
  8
0
 10
48.709440
 20
103.214584
 42
-0.073350
  0
VERTEX
  8
0
 10
49.818046
 20
101.500000
 42
0.167367
  0
VERTEX
  8
0
 10
51.773827
 20
99.438910
 42
0.214982
  0
VERTEX
  8
0
 10
54.353872
 20
99.293161
 42
0.193482
  0
VERTEX
  8
0
 10
56.372183
 20
101.170878
 42
0.146038
  0
VERTEX
  8
0
 10
56.826764
 20
104.194958
 42
0.071742
  0
VERTEX
  8
0
 10
56.492821
 20
105.338768
 42
0.130422
  0
VERTEX
  8
0
 10
55.879581
 20
106.086832
 42
0.100652
  0
VERTEX
  8
0
 10
54.853923
 20
106.549928
 42
0.031950
  0
VERTEX
  8
0
 10
53.189295
 20
106.817886
 42
-0.058937
  0
VERTEX
  8
0
 10
51.008392
 20
107.290626
 42
-0.310329
  0
VERTEX
  8
0
 10
50.317114
 20
108.223387
 42
-0.295589
  0
VERTEX
  8
0
 10
50.929741
 20
109.248107
 42
-0.056391
  0
VERTEX
  8
0
 10
53.074139
 20
110.017502
 42
0.056864
  0
VERTEX
  8
0
 10
54.198495
 20
110.422109
 42
0.108939
  0
VERTEX
  8
0
 10
54.942927
 20
111.019263
 42
0.110436
  0
VERTEX
  8
0
 10
55.361043
 20
111.867998
 42
0.059509
  0
VERTEX
  8
0
 10
55.500000
 20
113.031390
 42
0.139990
  0
VERTEX
  8
0
 10
54.955511
 20
114.938015
 42
0.220650
  0
VERTEX
  8
0
 10
53.556971
 20
115.854516
 42
0.175233
  0
VERTEX
  8
0
 10
51.670477
 20
115.469802
 42
0.094173
  0
VERTEX
  8
0
 10
49.887751
 20
113.855339
 42
-0.028611
  0
VERTEX
  8
0
 10
48.995805
 20
112.805581
 42
-0.098187
  0
VERTEX
  8
0
 10
48.267805
 20
112.292918
 42
-0.168257
  0
VERTEX
  8
0
 10
47.627340
 20
112.238729
 42
-0.134445
  0
VERTEX
  8
0
 10
47.021209
 20
112.582783
 42
-0.164244
  0
VERTEX
  8
0
 10
46.410043
 20
113.811223
 42
-0.138077
  0
VERTEX
  8
0
 10
46.611476
 20
115.257976
 42
-0.106303
  0
VERTEX
  8
0
 10
47.637381
 20
116.681203
 42
-0.071186
  0
VERTEX
  8
0
 10
49.308337
 20
117.805536
 42
-0.050933
  0
VERTEX
  8
0
 10
51.614774
 20
118.643201
 42
-0.072461
  0
VERTEX
  8
0
 10
53.780848
 20
118.864744
 42
-0.076703
  0
VERTEX
  8
0
 10
55.826711
 20
118.458856
 42
-0.065608
  0
SEQEND
  0
POLYLINE
  8
0
 66
1
 70
1
  0
VERTEX
  8
0
 10
78.000000
 20
117.000000
 42
-0.022886
  0
VERTEX
  8
0
 10
78.765585
 20
116.160928
 42
-0.026473
  0
VERTEX
  8
0
 10
79.412500
 20
115.293750
 42
-0.026952
  0
VERTEX
  8
0
 10
79.874488
 20
114.512642
 42
-0.120635
  0
VERTEX
  8
0
 10
80.000000
 20
114.000000
 42
-0.311327
  0
VERTEX
  8
0
 10
79.453535
 20
113.207427
 42
-0.119989
  0
VERTEX
  8
0
 10
78.058039
 20
113.032504
 42
-0.095329
  0
VERTEX
  8
0
 10
76.498539
 20
113.522136
 42
-0.179410
  0
VERTEX
  8
0
 10
75.638374
 20
114.500000
 42
0.245259
  0
VERTEX
  8
0
 10
74.061656
 20
115.892304
 42
0.197836
  0
VERTEX
  8
0
 10
71.796180
 20
115.553881
 42
0.132692
  0
VERTEX
  8
0
 10
69.747584
 20
113.432904
 42
0.126722
  0
VERTEX
  8
0
 10
69.000000
 20
110.530558
 42
0.060651
  0
VERTEX
  8
0
 10
69.094479
 20
109.754557
 42
0.282889
  0
VERTEX
  8
0
 10
69.401932
 20
109.452155
 42
0.160554
  0
VERTEX
  8
0
 10
69.968247
 20
109.504772
 42
0.020093
  0
VERTEX
  8
0
 10
71.093141
 20
110.049847
 42
-0.157139
  0
VERTEX
  8
0
 10
74.676631
 20
110.700703
 42
-0.144161
  0
VERTEX
  8
0
 10
78.109545
 20
109.174197
 42
-0.136247
  0
VERTEX
  8
0
 10
80.298028
 20
105.942186
 42
-0.135976
  0
VERTEX
  8
0
 10
80.509199
 20
102.041883
 42
-0.133885
  0
VERTEX
  8
0
 10
78.607842
 20
98.410946
 42
-0.139403
  0
VERTEX
  8
0
 10
75.153311
 20
96.315725
 42
-0.137071
  0
VERTEX
  8
0
 10
71.066409
 20
96.333171
 42
-0.127862
  0
VERTEX
  8
0
 10
67.454545
 20
98.454545
 42
-0.144250
  0
VERTEX
  8
0
 10
65.270263
 20
102.463561
 42
-0.072108
  0
VERTEX
  8
0
 10
64.872117
 20
108.276685
 42
-0.071823
  0
VERTEX
  8
0
 10
66.144247
 20
113.992787
 42
-0.139299
  0
VERTEX
  8
0
 10
68.913343
 20
117.718197
 42
-0.106443
  0
VERTEX
  8
0
 10
70.982904
 20
118.699326
 42
-0.077525
  0
VERTEX
  8
0
 10
73.529861
 20
118.892926
 42
-0.076775
  0
VERTEX
  8
0
 10
76.039311
 20
118.299729
 42
-0.100341
  0
SEQEND
  0
POLYLINE
  8
0
 66
1
 70
1
  0
VERTEX
  8
0
 10
111.000000
 20
117.433278
 42
-0.099266
  0
VERTEX
  8
0
 10
110.834923
 20
116.609984
 42
-0.022096
  0
VERTEX
  8
0
 10
110.220616
 20
115.304955
 42
-0.022113
  0
VERTEX
  8
0
 10
109.362409
 20
113.834700
 42
-0.019759
  0
VERTEX
  8
0
 10
108.346777
 20
112.388001
 42
0.041059
  0
VERTEX
  8
0
 10
107.214038
 20
110.618946
 42
0.017917
  0
VERTEX
  8
0
 10
105.996372
 20
108.108634
 42
0.017589
  0
VERTEX
  8
0
 10
104.886619
 20
105.335189
 42
0.022429
  0
VERTEX
  8
0
 10
104.071202
 20
102.704723
 42
-0.015115
  0
VERTEX
  8
0
 10
103.276057
 20
100.000447
 42
-0.036698
  0
VERTEX
  8
0
 10
102.486451
 20
98.077140
 42
-0.051207
  0
VERTEX
  8
0
 10
101.713455
 20
96.858460
 42
-0.229723
  0
VERTEX
  8
0
 10
100.974425
 20
96.500000
 42
-0.371354
  0
VERTEX
  8
0
 10
99.720423
 20
97.580340
 42
-0.070636
  0
VERTEX
  8
0
 10
99.696015
 20
100.844837
 42
-0.050115
  0
VERTEX
  8
0
 10
100.762277
 20
105.323847
 42
-0.035592
  0
VERTEX
  8
0
 10
102.798046
 20
110.072465
 42
0.000000
  0
VERTEX
  8
0
 10
105.855113
 20
116.000000
 42
0.000000
  0
VERTEX
  8
0
 10
100.986574
 20
116.000000
 42
-0.024183
  0
VERTEX
  8
0
 10
97.981642
 20
116.145423
 42
-0.080876
  0
VERTEX
  8
0
 10
96.080002
 20
116.647466
 42
-0.232973
  0
VERTEX
  8
0
 10
95.430978
 20
117.428260
 42
-0.260973
  0
VERTEX
  8
0
 10
95.693853
 20
118.360520
 42
-0.170558
  0
VERTEX
  8
0
 10
96.223175
 20
118.614603
 42
-0.007408
  0
VERTEX
  8
0
 10
98.299653
 20
118.812153
 42
-0.011884
  0
VERTEX
  8
0
 10
100.810441
 20
118.953581
 42
-0.008125
  0
VERTEX
  8
0
 10
103.666667
 20
119.000000
 42
-0.007590
  0
VERTEX
  8
0
 10
107.560945
 20
118.940883
 42
-0.045061
  0
VERTEX
  8
0
 10
109.579828
 20
118.696589
 42
-0.112471
  0
VERTEX
  8
0
 10
110.616084
 20
118.215709
 42
-0.232117
  0
SEQEND
  0
POLYLINE
  8
0
 66
1
 70
1
  0
VERTEX
  8
0
 10
129.000000
 20
117.500000
 42
-0.197692
  0
VERTEX
  8
0
 10
128.709964
 20
116.795114
 42
-0.123690
  0
VERTEX
  8
0
 10
127.935583
 20
116.326742
 42
-0.059941
  0
VERTEX
  8
0
 10
126.508836
 20
116.069918
 42
-0.014591
  0
VERTEX
  8
0
 10
124.113499
 20
116.000000
 42
0.012061
  0
VERTEX
  8
0
 10
121.099571
 20
115.927288
 42
0.114645
  0
VERTEX
  8
0
 10
119.867418
 20
115.577594
 42
0.188239
  0
VERTEX
  8
0
 10
119.205211
 20
114.781498
 42
0.044026
  0
VERTEX
  8
0
 10
118.795710
 20
113.061442
 42
0.019077
  0
VERTEX
  8
0
 10
118.604058
 20
111.286830
 42
0.216883
  0
VERTEX
  8
0
 10
118.844958
 20
110.642368
 42
0.228497
  0
VERTEX
  8
0
 10
119.480381
 20
110.419990
 42
0.021194
  0
VERTEX
  8
0
 10
121.170529
 20
110.684106
 42
-0.100003
  0
VERTEX
  8
0
 10
123.672346
 20
110.679233
 42
-0.078788
  0
VERTEX
  8
0
 10
126.214764
 20
109.726490
 42
-0.079801
  0
VERTEX
  8
0
 10
128.308847
 20
108.050141
 42
-0.107700
  0
VERTEX
  8
0
 10
129.514942
 20
105.952923
 42
-0.145251
  0
VERTEX
  8
0
 10
129.579957
 20
102.503561
 42
-0.114643
  0
VERTEX
  8
0
 10
127.788427
 20
99.207980
 42
-0.105444
  0
VERTEX
  8
0
 10
124.569386
 20
96.838833
 42
-0.106489
  0
VERTEX
  8
0
 10
120.675453
 20
96.000000
 42
-0.091687
  0
VERTEX
  8
0
 10
118.395280
 20
96.421668
 42
-0.070759
  0
VERTEX
  8
0
 10
116.180569
 20
97.651797
 42
-0.076106
  0
VERTEX
  8
0
 10
114.552085
 20
99.329244
 42
-0.155912
  0
VERTEX
  8
0
 10
114.000000
 20
101.056704
 42
-0.132041
  0
VERTEX
  8
0
 10
114.363914
 20
102.410707
 42
-0.271575
  0
VERTEX
  8
0
 10
115.286374
 20
102.933144
 42
-0.179726
  0
VERTEX
  8
0
 10
116.550037
 20
102.441995
 42
-0.071670
  0
VERTEX
  8
0
 10
117.767927
 20
101.000000
 42
0.131921
  0
VERTEX
  8
0
 10
119.446402
 20
99.435640
 42
0.142366
  0
VERTEX
  8
0
 10
121.632755
 20
98.980902
 42
0.145312
  0
VERTEX
  8
0
 10
123.689245
 20
99.769958
 42
0.139011
  0
VERTEX
  8
0
 10
125.024894
 20
101.565475
 42
0.147102
  0
VERTEX
  8
0
 10
125.253145
 20
104.765297
 42
0.172854
  0
VERTEX
  8
0
 10
123.638094
 20
107.322994
 42
0.192429
  0
VERTEX
  8
0
 10
120.923175
 20
108.118514
 42
0.174290
  0
VERTEX
  8
0
 10
118.267217
 20
106.867217
 42
-0.139770
  0
VERTEX
  8
0
 10
116.711256
 20
106.001655
 42
-0.268992
  0
VERTEX
  8
0
 10
115.390488
 20
106.403898
 42
-0.164280
  0
VERTEX
  8
0
 10
114.628067
 20
108.093115
 42
-0.063319
  0
VERTEX
  8
0
 10
114.701402
 20
110.697744
 42
-0.017347
  0
VERTEX
  8
0
 10
115.673215
 20
115.769822
 42
-0.140842
  0
VERTEX
  8
0
 10
116.803499
 20
117.820040
 42
-0.170166
  0
VERTEX
  8
0
 10
118.752068
 20
118.761331
 42
-0.028234
  0
VERTEX
  8
0
 10
122.975249
 20
119.000000
 42
-0.010548
  0
VERTEX
  8
0
 10
126.025461
 20
118.935645
 42
-0.050498
  0
VERTEX
  8
0
 10
127.745875
 20
118.687757
 42
-0.113208
  0
VERTEX
  8
0
 10
128.661270
 20
118.223379
 42
-0.222536
  0
SEQEND
  0
POLYLINE
  8
0
 66
1
 70
1
  0
VERTEX
  8
0
 10
138.644094
 20
110.500000
 42
0.006153
  0
VERTEX
  8
0
 10
139.749823
 20
107.241443
 42
0.009910
  0
VERTEX
  8
0
 10
140.780580
 20
104.496875
 42
0.004064
  0
VERTEX
  8
0
 10
141.712524
 20
102.211564
 42
0.302626
  0
VERTEX
  8
0
 10
142.030059
 20
102.000000
 42
0.302076
  0
VERTEX
  8
0
 10
142.343319
 20
102.208260
 42
0.005153
  0
VERTEX
  8
0
 10
143.160279
 20
104.212525
 42
0.011218
  0
VERTEX
  8
0
 10
144.059955
 20
106.644619
 42
0.006993
  0
VERTEX
  8
0
 10
145.010036
 20
109.532000
 42
-0.014847
  0
VERTEX
  8
0
 10
146.803600
 20
114.707585
 42
-0.063362
  0
VERTEX
  8
0
 10
148.339134
 20
117.587534
 42
-0.171301
  0
VERTEX
  8
0
 10
149.764974
 20
118.594930
 42
-0.271700
  0
VERTEX
  8
0
 10
151.171399
 20
118.228601
 42
-0.231585
  0
VERTEX
  8
0
 10
151.510353
 20
117.239838
 42
-0.031144
  0
VERTEX
  8
0
 10
151.089481
 20
115.017438
 42
-0.023090
  0
VERTEX
  8
0
 10
150.091235
 20
111.739367
 42
-0.006834
  0
VERTEX
  8
0
 10
148.265503
 20
106.820983
 42
-0.005464
  0
VERTEX
  8
0
 10
145.922281
 20
100.954894
 42
-0.040178
  0
VERTEX
  8
0
 10
144.552933
 20
98.267630
 42
-0.098285
  0
VERTEX
  8
0
 10
143.344020
 20
96.963502
 42
-0.158130
  0
VERTEX
  8
0
 10
141.915099
 20
96.500000
 42
-0.154302
  0
VERTEX
  8
0
 10
140.495741
 20
96.948702
 42
-0.100618
  0
VERTEX
  8
0
 10
139.305278
 20
98.206614
 42
-0.041611
  0
VERTEX
  8
0
 10
137.975750
 20
100.797469
 42
-0.005770
  0
VERTEX
  8
0
 10
135.735413
 20
106.416229
 42
-0.009560
  0
VERTEX
  8
0
 10
133.380015
 20
112.894054
 42
-0.056164
  0
VERTEX
  8
0
 10
132.600761
 20
116.421523
 42
-0.168584
  0
VERTEX
  8
0
 10
133.023666
 20
118.237352
 42
-0.257460
  0
VERTEX
  8
0
 10
134.406591
 20
119.000000
 42
-0.250904
  0
VERTEX
  8
0
 10
135.197066
 20
118.576685
 42
-0.031263
  0
VERTEX
  8
0
 10
136.207093
 20
116.832816
 42
-0.026271
  0
VERTEX
  8
0
 10
137.352148
 20
114.197840
 42
-0.010645
  0
SEQEND
  0
POLYLINE
  8
0
 66
1
 70
1
  0
VERTEX
  8
0
 10
170.342675
 20
117.889728
 42
-0.097119
  0
VERTEX
  8
0
 10
172.379863
 20
116.431802
 42
-0.083846
  0
VERTEX
  8
0
 10
173.842819
 20
114.240722
 42
-0.067839
  0
VERTEX
  8
0
 10
174.715713
 20
111.271629
 42
-0.037634
  0
VERTEX
  8
0
 10
175.000000
 20
107.500000
 42
-0.064574
  0
VERTEX
  8
0
 10
174.271418
 20
101.882101
 42
-0.151293
  0
VERTEX
  8
0
 10
172.051880
 20
98.328066
 42
-0.140483
  0
VERTEX
  8
0
 10
168.082253
 20
96.492601
 42
-0.052754
  0
VERTEX
  8
0
 10
161.903846
 20
96.192405
 42
0.000000
  0
VERTEX
  8
0
 10
156.500000
 20
96.500000
 42
0.000000
  0
VERTEX
  8
0
 10
156.211631
 20
106.428821
 42
-0.005089
  0
VERTEX
  8
0
 10
156.138083
 20
110.328401
 42
-0.007028
  0
VERTEX
  8
0
 10
156.156897
 20
113.829147
 42
-0.004646
  0
VERTEX
  8
0
 10
156.240976
 20
116.755611
 42
-0.082283
  0
VERTEX
  8
0
 10
156.430246
 20
117.678821
 42
-0.280601
  0
VERTEX
  8
0
 10
157.771985
 20
118.714267
 42
-0.023747
  0
VERTEX
  8
0
 10
162.316427
 20
118.999316
 42
-0.030290
  0
VERTEX
  8
0
 10
167.072954
 20
118.783205
 42
-0.080564
  0
SEQEND
  0
POLYLINE
  8
0
 66
1
 70
1
  0
VERTEX
  8
0
 10
194.928479
 20
117.536985
 42
-0.049318
  0
VERTEX
  8
0
 10
196.661767
 20
116.411751
 42
-0.067444
  0
VERTEX
  8
0
 10
197.944726
 20
115.066629
 42
-0.074851
  0
VERTEX
  8
0
 10
198.729787
 20
113.549948
 42
-0.082239
  0
VERTEX
  8
0
 10
199.000000
 20
111.918213
 42
-0.320871
  0
VERTEX
  8
0
 10
198.432927
 20
111.125545
 42
-0.157603
  0
VERTEX
  8
0
 10
197.127964
 20
111.104415
 42
-0.086072
  0
VERTEX
  8
0
 10
195.367224
 20
111.994748
 42
-0.066195
  0
VERTEX
  8
0
 10
193.821340
 20
113.500000
 42
0.188001
  0
VERTEX
  8
0
 10
190.129338
 20
115.676204
 42
0.216310
  0
VERTEX
  8
0
 10
186.210645
 20
114.612307
 42
0.159595
  0
VERTEX
  8
0
 10
183.590700
 20
110.462222
 42
0.116219
  0
VERTEX
  8
0
 10
183.507195
 20
104.967243
 42
0.096442
  0
VERTEX
  8
0
 10
185.192396
 20
101.073889
 42
0.183080
  0
VERTEX
  8
0
 10
187.956904
 20
99.150497
 42
0.188433
  0
VERTEX
  8
0
 10
191.239549
 20
99.568925
 42
0.102220
  0
VERTEX
  8
0
 10
194.389319
 20
102.238203
 42
-0.018865
  0
VERTEX
  8
0
 10
195.678074
 20
103.762762
 42
-0.078068
  0
VERTEX
  8
0
 10
196.616630
 20
104.514738
 42
-0.160258
  0
VERTEX
  8
0
 10
197.376399
 20
104.670209
 42
-0.168937
  0
VERTEX
  8
0
 10
198.061134
 20
104.338866
 42
-0.279898
  0
VERTEX
  8
0
 10
198.728821
 20
101.605373
 42
-0.154091
  0
VERTEX
  8
0
 10
196.681835
 20
98.689235
 42
-0.100773
  0
VERTEX
  8
0
 10
192.406160
 20
96.612676
 42
-0.096442
  0
VERTEX
  8
0
 10
187.588815
 20
96.328326
 42
-0.077174
  0
VERTEX
  8
0
 10
183.806556
 20
97.446198
 42
-0.115198
  0
VERTEX
  8
0
 10
181.116616
 20
99.580831
 42
-0.107370
  0
VERTEX
  8
0
 10
179.530143
 20
102.809760
 42
-0.060767
  0
VERTEX
  8
0
 10
179.000000
 20
107.155764
 42
-0.023042
  0
VERTEX
  8
0
 10
179.133002
 20
110.040282
 42
-0.072785
  0
VERTEX
  8
0
 10
179.587018
 20
111.916119
 42
-0.075141
  0
VERTEX
  8
0
 10
180.550805
 20
113.550598
 42
-0.025660
  0
VERTEX
  8
0
 10
182.400000
 20
115.600000
 42
-0.062788
  0
VERTEX
  8
0
 10
185.301321
 20
117.851670
 42
-0.095586
  0
VERTEX
  8
0
 10
188.295308
 20
118.924194
 42
-0.095487
  0
VERTEX
  8
0
 10
191.475690
 20
118.806455
 42
-0.062544
  0
SEQEND
  0
POLYLINE
  8
0
 66
1
 70
1
  0
VERTEX
  8
0
 10
237.717004
 20
115.542614
 42
-0.112066
  0
VERTEX
  8
0
 10
239.472273
 20
112.229230
 42
-0.062296
  0
VERTEX
  8
0
 10
240.111167
 20
107.680146
 42
-0.062126
  0
VERTEX
  8
0
 10
239.609465
 20
103.095326
 42
-0.108784
  0
VERTEX
  8
0
 10
237.956669
 20
99.672043
 42
-0.094221
  0
VERTEX
  8
0
 10
235.882987
 20
97.866478
 42
-0.061416
  0
VERTEX
  8
0
 10
232.958206
 20
96.609765
 42
-0.059454
  0
VERTEX
  8
0
 10
229.699147
 20
96.069165
 42
-0.073008
  0
VERTEX
  8
0
 10
226.633022
 20
96.377258
 42
-0.161991
  0
VERTEX
  8
0
 10
221.433265
 20
99.688871
 42
-0.131659
  0
VERTEX
  8
0
 10
218.720935
 20
105.751156
 42
-0.131829
  0
VERTEX
  8
0
 10
219.404897
 20
112.351283
 42
-0.162550
  0
VERTEX
  8
0
 10
223.311367
 20
117.106824
 42
-0.090156
  0
VERTEX
  8
0
 10
226.924979
 20
118.554344
 42
-0.077488
  0
VERTEX
  8
0
 10
231.019917
 20
118.744928
 42
-0.080063
  0
VERTEX
  8
0
 10
234.854342
 20
117.692202
 42
-0.108599
  0
SEQEND
  0
POLYLINE
  8
0
 66
1
 70
1
  0
VERTEX
  8
0
 10
249.000000
 20
109.921051
 42
0.008044
  0
VERTEX
  8
0
 10
249.250521
 20
106.604513
 42
0.010764
  0
VERTEX
  8
0
 10
249.590774
 20
103.606496
 42
0.008151
  0
VERTEX
  8
0
 10
249.967362
 20
101.128838
 42
0.102171
  0
VERTEX
  8
0
 10
250.309017
 20
100.250000
 42
0.122217
  0
VERTEX
  8
0
 10
250.821335
 20
99.769699
 42
0.045879
  0
VERTEX
  8
0
 10
251.726963
 20
99.367188
 42
0.042007
  0
VERTEX
  8
0
 10
252.837503
 20
99.092386
 42
0.039674
  0
VERTEX
  8
0
 10
254.000000
 20
99.000000
 42
0.039674
  0
VERTEX
  8
0
 10
255.162497
 20
99.092386
 42
0.042007
  0
VERTEX
  8
0
 10
256.273037
 20
99.367188
 42
0.045879
  0
VERTEX
  8
0
 10
257.178665
 20
99.769699
 42
0.122217
  0
VERTEX
  8
0
 10
257.690983
 20
100.250000
 42
0.102491
  0
VERTEX
  8
0
 10
258.032603
 20
101.130394
 42
0.008072
  0
VERTEX
  8
0
 10
258.409226
 20
103.626833
 42
0.010706
  0
VERTEX
  8
0
 10
258.749483
 20
106.647214
 42
0.007987
  0
VERTEX
  8
0
 10
259.000000
 20
109.990282
 42
-0.006904
  0
VERTEX
  8
0
 10
259.333479
 20
114.573698
 42
-0.040835
  0
VERTEX
  8
0
 10
259.735539
 20
116.943485
 42
-0.093181
  0
VERTEX
  8
0
 10
260.332962
 20
118.227416
 42
-0.192682
  0
VERTEX
  8
0
 10
261.250000
 20
118.813606
 42
-0.241762
  0
VERTEX
  8
0
 10
262.168551
 20
118.543136
 42
-0.155994
  0
VERTEX
  8
0
 10
262.712243
 20
117.549149
 42
-0.043412
  0
VERTEX
  8
0
 10
262.951956
 20
115.258304
 42
-0.004372
  0
VERTEX
  8
0
 10
263.000000
 20
109.764454
 42
-0.015927
  0
VERTEX
  8
0
 10
262.765013
 20
102.389334
 42
-0.112531
  0
VERTEX
  8
0
 10
261.753648
 20
98.973051
 42
-0.184314
  0
VERTEX
  8
0
 10
259.587926
 20
97.169824
 42
-0.058809
  0
VERTEX
  8
0
 10
255.417873
 20
96.270984
 42
-0.020633
  0
VERTEX
  8
0
 10
252.769908
 20
96.129037
 42
-0.057782
  0
VERTEX
  8
0
 10
250.924563
 20
96.320048
 42
-0.070026
  0
VERTEX
  8
0
 10
249.380405
 20
96.898459
 42
-0.042535
  0
VERTEX
  8
0
 10
247.750000
 20
97.974226
 42
-0.054524
  0
VERTEX
  8
0
 10
246.170433
 20
99.528115
 42
-0.109991
  0
VERTEX
  8
0
 10
245.390426
 20
101.080736
 42
-0.055490
  0
VERTEX
  8
0
 10
245.067445
 20
103.448308
 42
-0.006179
  0
VERTEX
  8
0
 10
245.000000
 20
108.905913
 42
-0.007317
  0
VERTEX
  8
0
 10
245.049860
 20
112.312737
 42
-0.010842
  0
VERTEX
  8
0
 10
245.201953
 20
115.295149
 42
-0.006258
  0
VERTEX
  8
0
 10
245.413601
 20
117.774675
 42
-0.173647
  0
VERTEX
  8
0
 10
245.687500
 20
118.354167
 42
-0.283351
  0
VERTEX
  8
0
 10
246.878635
 20
118.637051
 42
-0.222953
  0
VERTEX
  8
0
 10
247.862106
 20
117.706448
 42
-0.064757
  0
VERTEX
  8
0
 10
248.563323
 20
114.901210
 42
-0.014078
  0
SEQEND
  0
POLYLINE
  8
0
 66
1
 70
1
  0
VERTEX
  8
0
 10
285.500000
 20
117.000000
 42
-0.175358
  0
VERTEX
  8
0
 10
285.255863
 20
116.325297
 42
-0.106214
  0
VERTEX
  8
0
 10
284.579764
 20
115.795365
 42
-0.066545
  0
VERTEX
  8
0
 10
283.435899
 20
115.415967
 42
-0.026147
  0
VERTEX
  8
0
 10
281.786756
 20
115.191826
 42
0.000000
  0
VERTEX
  8
0
 10
278.073512
 20
114.883652
 42
0.000000
  0
VERTEX
  8
0
 10
277.786756
 20
105.691826
 42
-0.006163
  0
VERTEX
  8
0
 10
277.577853
 20
100.893867
 42
-0.034051
  0
VERTEX
  8
0
 10
277.258487
 20
98.329764
 42
-0.076220
  0
VERTEX
  8
0
 10
276.766308
 20
96.956494
 42
-0.275282
  0
VERTEX
  8
0
 10
276.000000
 20
96.500000
 42
-0.276043
  0
VERTEX
  8
0
 10
275.233120
 20
96.958306
 42
-0.075785
  0
VERTEX
  8
0
 10
274.741130
 20
98.339588
 42
-0.033858
  0
VERTEX
  8
0
 10
274.421770
 20
100.918611
 42
-0.006110
  0
VERTEX
  8
0
 10
274.212474
 20
105.750000
 42
0.000000
  0
VERTEX
  8
0
 10
273.924948
 20
115.000000
 42
0.000000
  0
VERTEX
  8
0
 10
270.521491
 20
115.000000
 42
-0.027210
  0
VERTEX
  8
0
 10
269.173211
 20
115.073428
 42
-0.033740
  0
VERTEX
  8
0
 10
267.936252
 20
115.293750
 42
-0.035898
  0
VERTEX
  8
0
 10
266.956920
 20
115.613392
 42
-0.158808
  0
VERTEX
  8
0
 10
266.500000
 20
116.000000
 42
-0.251409
  0
VERTEX
  8
0
 10
266.413793
 20
117.412296
 42
-0.219155
  0
VERTEX
  8
0
 10
267.550616
 20
118.384821
 42
-0.065245
  0
VERTEX
  8
0
 10
270.590449
 20
118.831418
 42
-0.011700
  0
VERTEX
  8
0
 10
276.331542
 20
118.786447
 42
-0.006185
  0
VERTEX
  8
0
 10
281.116073
 20
118.577701
 42
-0.034130
  0
VERTEX
  8
0
 10
283.674183
 20
118.258332
 42
-0.076396
  0
VERTEX
  8
0
 10
285.044236
 20
117.766078
 42
-0.274974
  0
SEQEND
  0
POLYLINE
  8
0
 66
1
 70
1
  0
VERTEX
  8
0
 10
299.777494
 20
117.443296
 42
-0.101412
  0
VERTEX
  8
0
 10
301.147540
 20
115.995032
 42
-0.095503
  0
VERTEX
  8
0
 10
301.874197
 20
114.093912
 42
-0.093373
  0
VERTEX
  8
0
 10
301.850273
 20
112.021865
 42
-0.091906
  0
VERTEX
  8
0
 10
301.075438
 20
110.087821
 42
0.086133
  0
VERTEX
  8
0
 10
300.786984
 20
109.391044
 42
0.100666
  0
VERTEX
  8
0
 10
300.772685
 20
108.676394
 42
0.091659
  0
VERTEX
  8
0
 10
301.044460
 20
107.961868
 42
0.059854
  0
VERTEX
  8
0
 10
301.590751
 20
107.266392
 42
-0.130198
  0
VERTEX
  8
0
 10
302.630966
 20
105.476530
 42
-0.071622
  0
VERTEX
  8
0
 10
302.947678
 20
102.946226
 42
-0.071025
  0
VERTEX
  8
0
 10
302.536520
 20
100.403162
 42
-0.121415
  0
VERTEX
  8
0
 10
301.430073
 20
98.572930
 42
-0.142658
  0
VERTEX
  8
0
 10
297.654169
 20
96.500359
 42
-0.118912
  0
VERTEX
  8
0
 10
293.061163
 20
96.583603
 42
-0.134056
  0
VERTEX
  8
0
 10
289.396307
 20
98.688572
 42
-0.198267
  0
VERTEX
  8
0
 10
288.000000
 20
102.071429
 42
-0.142885
  0
VERTEX
  8
0
 10
288.409126
 20
103.473861
 42
-0.296144
  0
VERTEX
  8
0
 10
289.404020
 20
103.926855
 42
-0.177281
  0
VERTEX
  8
0
 10
290.709440
 20
103.214584
 42
-0.073350
  0
VERTEX
  8
0
 10
291.818046
 20
101.500000
 42
0.167367
  0
VERTEX
  8
0
 10
293.773827
 20
99.438910
 42
0.214982
  0
VERTEX
  8
0
 10
296.353872
 20
99.293161
 42
0.193482
  0
VERTEX
  8
0
 10
298.372183
 20
101.170878
 42
0.146038
  0
VERTEX
  8
0
 10
298.826764
 20
104.194958
 42
0.071742
  0
VERTEX
  8
0
 10
298.492821
 20
105.338768
 42
0.130422
  0
VERTEX
  8
0
 10
297.879581
 20
106.086832
 42
0.100652
  0
VERTEX
  8
0
 10
296.853923
 20
106.549928
 42
0.031950
  0
VERTEX
  8
0
 10
295.189295
 20
106.817886
 42
-0.058937
  0
VERTEX
  8
0
 10
293.008392
 20
107.290626
 42
-0.310329
  0
VERTEX
  8
0
 10
292.317114
 20
108.223387
 42
-0.295589
  0
VERTEX
  8
0
 10
292.929741
 20
109.248107
 42
-0.056391
  0
VERTEX
  8
0
 10
295.074139
 20
110.017502
 42
0.056864
  0
VERTEX
  8
0
 10
296.198495
 20
110.422109
 42
0.108939
  0
VERTEX
  8
0
 10
296.942927
 20
111.019263
 42
0.110436
  0
VERTEX
  8
0
 10
297.361043
 20
111.867998
 42
0.059509
  0
VERTEX
  8
0
 10
297.500000
 20
113.031390
 42
0.139990
  0
VERTEX
  8
0
 10
296.955511
 20
114.938015
 42
0.220650
  0
VERTEX
  8
0
 10
295.556971
 20
115.854516
 42
0.175233
  0
VERTEX
  8
0
 10
293.670477
 20
115.469802
 42
0.094173
  0
VERTEX
  8
0
 10
291.887751
 20
113.855339
 42
-0.028611
  0
VERTEX
  8
0
 10
290.995805
 20
112.805581
 42
-0.098187
  0
VERTEX
  8
0
 10
290.267805
 20
112.292918
 42
-0.168257
  0
VERTEX
  8
0
 10
289.627340
 20
112.238729
 42
-0.134445
  0
VERTEX
  8
0
 10
289.021209
 20
112.582783
 42
-0.164244
  0
VERTEX
  8
0
 10
288.410043
 20
113.811223
 42
-0.138077
  0
VERTEX
  8
0
 10
288.611476
 20
115.257976
 42
-0.106303
  0
VERTEX
  8
0
 10
289.637381
 20
116.681203
 42
-0.071186
  0
VERTEX
  8
0
 10
291.308337
 20
117.805536
 42
-0.050933
  0
VERTEX
  8
0
 10
293.614774
 20
118.643201
 42
-0.072461
  0
VERTEX
  8
0
 10
295.780848
 20
118.864744
 42
-0.076703
  0
VERTEX
  8
0
 10
297.826711
 20
118.458856
 42
-0.065608
  0
SEQEND
  0
POLYLINE
  8
0
 66
1
 70
1
  0
VERTEX
  8
0
 10
328.777494
 20
117.443296
 42
-0.101412
  0
VERTEX
  8
0
 10
330.147540
 20
115.995032
 42
-0.095503
  0
VERTEX
  8
0
 10
330.874197
 20
114.093912
 42
-0.093373
  0
VERTEX
  8
0
 10
330.850273
 20
112.021865
 42
-0.091906
  0
VERTEX
  8
0
 10
330.075438
 20
110.087821
 42
0.086133
  0
VERTEX
  8
0
 10
329.786984
 20
109.391044
 42
0.100666
  0
VERTEX
  8
0
 10
329.772685
 20
108.676394
 42
0.091659
  0
VERTEX
  8
0
 10
330.044460
 20
107.961868
 42
0.059854
  0
VERTEX
  8
0
 10
330.590751
 20
107.266392
 42
-0.130198
  0
VERTEX
  8
0
 10
331.630966
 20
105.476530
 42
-0.071622
  0
VERTEX
  8
0
 10
331.947678
 20
102.946226
 42
-0.071025
  0
VERTEX
  8
0
 10
331.536520
 20
100.403162
 42
-0.121415
  0
VERTEX
  8
0
 10
330.430073
 20
98.572930
 42
-0.142658
  0
VERTEX
  8
0
 10
326.654169
 20
96.500359
 42
-0.118912
  0
VERTEX
  8
0
 10
322.061163
 20
96.583603
 42
-0.134056
  0
VERTEX
  8
0
 10
318.396307
 20
98.688572
 42
-0.198267
  0
VERTEX
  8
0
 10
317.000000
 20
102.071429
 42
-0.142885
  0
VERTEX
  8
0
 10
317.409126
 20
103.473861
 42
-0.296144
  0
VERTEX
  8
0
 10
318.404020
 20
103.926855
 42
-0.177281
  0
VERTEX
  8
0
 10
319.709440
 20
103.214584
 42
-0.073350
  0
VERTEX
  8
0
 10
320.818046
 20
101.500000
 42
0.167367
  0
VERTEX
  8
0
 10
322.773827
 20
99.438910
 42
0.214982
  0
VERTEX
  8
0
 10
325.353872
 20
99.293161
 42
0.193482
  0
VERTEX
  8
0
 10
327.372183
 20
101.170878
 42
0.146038
  0
VERTEX
  8
0
 10
327.826764
 20
104.194958
 42
0.071742
  0
VERTEX
  8
0
 10
327.492821
 20
105.338768
 42
0.130422
  0
VERTEX
  8
0
 10
326.879581
 20
106.086832
 42
0.100652
  0
VERTEX
  8
0
 10
325.853923
 20
106.549928
 42
0.031950
  0
VERTEX
  8
0
 10
324.189295
 20
106.817886
 42
-0.058937
  0
VERTEX
  8
0
 10
322.008392
 20
107.290626
 42
-0.310329
  0
VERTEX
  8
0
 10
321.317114
 20
108.223387
 42
-0.295589
  0
VERTEX
  8
0
 10
321.929741
 20
109.248107
 42
-0.056391
  0
VERTEX
  8
0
 10
324.074139
 20
110.017502
 42
0.056864
  0
VERTEX
  8
0
 10
325.198495
 20
110.422109
 42
0.108939
  0
VERTEX
  8
0
 10
325.942927
 20
111.019263
 42
0.110436
  0
VERTEX
  8
0
 10
326.361043
 20
111.867998
 42
0.059509
  0
VERTEX
  8
0
 10
326.500000
 20
113.031390
 42
0.139990
  0
VERTEX
  8
0
 10
325.955511
 20
114.938015
 42
0.220650
  0
VERTEX
  8
0
 10
324.556971
 20
115.854516
 42
0.175233
  0
VERTEX
  8
0
 10
322.670477
 20
115.469802
 42
0.094173
  0
VERTEX
  8
0
 10
320.887751
 20
113.855339
 42
-0.028611
  0
VERTEX
  8
0
 10
319.995805
 20
112.805581
 42
-0.098187
  0
VERTEX
  8
0
 10
319.267805
 20
112.292918
 42
-0.168257
  0
VERTEX
  8
0
 10
318.627340
 20
112.238729
 42
-0.134445
  0
VERTEX
  8
0
 10
318.021209
 20
112.582783
 42
-0.164244
  0
VERTEX
  8
0
 10
317.410043
 20
113.811223
 42
-0.138077
  0
VERTEX
  8
0
 10
317.611476
 20
115.257976
 42
-0.106303
  0
VERTEX
  8
0
 10
318.637381
 20
116.681203
 42
-0.071186
  0
VERTEX
  8
0
 10
320.308337
 20
117.805536
 42
-0.050933
  0
VERTEX
  8
0
 10
322.614774
 20
118.643201
 42
-0.072461
  0
VERTEX
  8
0
 10
324.780848
 20
118.864744
 42
-0.076703
  0
VERTEX
  8
0
 10
326.826711
 20
118.458856
 42
-0.065608
  0
SEQEND
  0
POLYLINE
  8
0
 66
1
 70
1
  0
VERTEX
  8
0
 10
341.644094
 20
110.500000
 42
0.006153
  0
VERTEX
  8
0
 10
342.749823
 20
107.241443
 42
0.009910
  0
VERTEX
  8
0
 10
343.780580
 20
104.496875
 42
0.004064
  0
VERTEX
  8
0
 10
344.712524
 20
102.211564
 42
0.302626
  0
VERTEX
  8
0
 10
345.030059
 20
102.000000
 42
0.302076
  0
VERTEX
  8
0
 10
345.343319
 20
102.208260
 42
0.005153
  0
VERTEX
  8
0
 10
346.160279
 20
104.212525
 42
0.011218
  0
VERTEX
  8
0
 10
347.059955
 20
106.644619
 42
0.006993
  0
VERTEX
  8
0
 10
348.010036
 20
109.532000
 42
-0.014847
  0
VERTEX
  8
0
 10
349.803600
 20
114.707585
 42
-0.063362
  0
VERTEX
  8
0
 10
351.339134
 20
117.587534
 42
-0.171301
  0
VERTEX
  8
0
 10
352.764974
 20
118.594930
 42
-0.271700
  0
VERTEX
  8
0
 10
354.171399
 20
118.228601
 42
-0.231585
  0
VERTEX
  8
0
 10
354.510353
 20
117.239838
 42
-0.031144
  0
VERTEX
  8
0
 10
354.089481
 20
115.017438
 42
-0.023090
  0
VERTEX
  8
0
 10
353.091235
 20
111.739367
 42
-0.006834
  0
VERTEX
  8
0
 10
351.265503
 20
106.820983
 42
-0.005464
  0
VERTEX
  8
0
 10
348.922281
 20
100.954894
 42
-0.040178
  0
VERTEX
  8
0
 10
347.552933
 20
98.267630
 42
-0.098285
  0
VERTEX
  8
0
 10
346.344020
 20
96.963502
 42
-0.158130
  0
VERTEX
  8
0
 10
344.915099
 20
96.500000
 42
-0.154302
  0
VERTEX
  8
0
 10
343.495741
 20
96.948702
 42
-0.100618
  0
VERTEX
  8
0
 10
342.305278
 20
98.206614
 42
-0.041611
  0
VERTEX
  8
0
 10
340.975750
 20
100.797469
 42
-0.005770
  0
VERTEX
  8
0
 10
338.735413
 20
106.416229
 42
-0.009560
  0
VERTEX
  8
0
 10
336.380015
 20
112.894054
 42
-0.056164
  0
VERTEX
  8
0
 10
335.600761
 20
116.421523
 42
-0.168584
  0
VERTEX
  8
0
 10
336.023666
 20
118.237352
 42
-0.257460
  0
VERTEX
  8
0
 10
337.406591
 20
119.000000
 42
-0.250904
  0
VERTEX
  8
0
 10
338.197066
 20
118.576685
 42
-0.031263
  0
VERTEX
  8
0
 10
339.207093
 20
116.832816
 42
-0.026271
  0
VERTEX
  8
0
 10
340.352148
 20
114.197840
 42
-0.010645
  0
SEQEND
  0
POLYLINE
  8
0
 66
1
 70
1
  0
VERTEX
  8
0
 10
373.342675
 20
117.889728
 42
-0.097119
  0
VERTEX
  8
0
 10
375.379863
 20
116.431802
 42
-0.083846
  0
VERTEX
  8
0
 10
376.842819
 20
114.240722
 42
-0.067839
  0
VERTEX
  8
0
 10
377.715713
 20
111.271629
 42
-0.037634
  0
VERTEX
  8
0
 10
378.000000
 20
107.500000
 42
-0.064574
  0
VERTEX
  8
0
 10
377.271418
 20
101.882101
 42
-0.151293
  0
VERTEX
  8
0
 10
375.051880
 20
98.328066
 42
-0.140483
  0
VERTEX
  8
0
 10
371.082253
 20
96.492601
 42
-0.052754
  0
VERTEX
  8
0
 10
364.903846
 20
96.192405
 42
0.000000
  0
VERTEX
  8
0
 10
359.500000
 20
96.500000
 42
0.000000
  0
VERTEX
  8
0
 10
359.211631
 20
106.428821
 42
-0.005089
  0
VERTEX
  8
0
 10
359.138083
 20
110.328401
 42
-0.007028
  0
VERTEX
  8
0
 10
359.156897
 20
113.829147
 42
-0.004646
  0
VERTEX
  8
0
 10
359.240976
 20
116.755611
 42
-0.082283
  0
VERTEX
  8
0
 10
359.430246
 20
117.678821
 42
-0.280601
  0
VERTEX
  8
0
 10
360.771985
 20
118.714267
 42
-0.023747
  0
VERTEX
  8
0
 10
365.316427
 20
118.999316
 42
-0.030290
  0
VERTEX
  8
0
 10
370.072954
 20
118.783205
 42
-0.080564
  0
SEQEND
  0
POLYLINE
  8
0
 66
1
 70
1
  0
VERTEX
  8
0
 10
397.928479
 20
117.536985
 42
-0.049318
  0
VERTEX
  8
0
 10
399.661767
 20
116.411751
 42
-0.067444
  0
VERTEX
  8
0
 10
400.944726
 20
115.066629
 42
-0.074851
  0
VERTEX
  8
0
 10
401.729787
 20
113.549948
 42
-0.082239
  0
VERTEX
  8
0
 10
402.000000
 20
111.918213
 42
-0.320871
  0
VERTEX
  8
0
 10
401.432927
 20
111.125545
 42
-0.157603
  0
VERTEX
  8
0
 10
400.127964
 20
111.104415
 42
-0.086072
  0
VERTEX
  8
0
 10
398.367224
 20
111.994748
 42
-0.066195
  0
VERTEX
  8
0
 10
396.821340
 20
113.500000
 42
0.188001
  0
VERTEX
  8
0
 10
393.129338
 20
115.676204
 42
0.216310
  0
VERTEX
  8
0
 10
389.210645
 20
114.612307
 42
0.159595
  0
VERTEX
  8
0
 10
386.590700
 20
110.462222
 42
0.116219
  0
VERTEX
  8
0
 10
386.507195
 20
104.967243
 42
0.096442
  0
VERTEX
  8
0
 10
388.192396
 20
101.073889
 42
0.183080
  0
VERTEX
  8
0
 10
390.956904
 20
99.150497
 42
0.188433
  0
VERTEX
  8
0
 10
394.239549
 20
99.568925
 42
0.102220
  0
VERTEX
  8
0
 10
397.389319
 20
102.238203
 42
-0.018865
  0
VERTEX
  8
0
 10
398.678074
 20
103.762762
 42
-0.078068
  0
VERTEX
  8
0
 10
399.616630
 20
104.514738
 42
-0.160258
  0
VERTEX
  8
0
 10
400.376399
 20
104.670209
 42
-0.168937
  0
VERTEX
  8
0
 10
401.061134
 20
104.338866
 42
-0.279898
  0
VERTEX
  8
0
 10
401.728821
 20
101.605373
 42
-0.154091
  0
VERTEX
  8
0
 10
399.681835
 20
98.689235
 42
-0.100773
  0
VERTEX
  8
0
 10
395.406160
 20
96.612676
 42
-0.096442
  0
VERTEX
  8
0
 10
390.588815
 20
96.328326
 42
-0.077174
  0
VERTEX
  8
0
 10
386.806556
 20
97.446198
 42
-0.115198
  0
VERTEX
  8
0
 10
384.116616
 20
99.580831
 42
-0.107370
  0
VERTEX
  8
0
 10
382.530143
 20
102.809760
 42
-0.060767
  0
VERTEX
  8
0
 10
382.000000
 20
107.155764
 42
-0.023042
  0
VERTEX
  8
0
 10
382.133002
 20
110.040282
 42
-0.072785
  0
VERTEX
  8
0
 10
382.587018
 20
111.916119
 42
-0.075141
  0
VERTEX
  8
0
 10
383.550805
 20
113.550598
 42
-0.025660
  0
VERTEX
  8
0
 10
385.400000
 20
115.600000
 42
-0.062788
  0
VERTEX
  8
0
 10
388.301321
 20
117.851670
 42
-0.095586
  0
VERTEX
  8
0
 10
391.295308
 20
118.924194
 42
-0.095487
  0
VERTEX
  8
0
 10
394.475690
 20
118.806455
 42
-0.062544
  0
SEQEND
  0
POLYLINE
  8
0
 66
1
 70
1
  0
VERTEX
  8
0
 10
92.000000
 20
104.000000
 42
-0.094082
  0
VERTEX
  8
0
 10
91.806427
 20
102.980359
 42
-0.183507
  0
VERTEX
  8
0
 10
91.257377
 20
102.376872
 42
-0.099850
  0
VERTEX
  8
0
 10
90.171186
 20
102.075582
 42
-0.017886
  0
VERTEX
  8
0
 10
88.059017
 20
102.000000
 42
-0.023552
  0
VERTEX
  8
0
 10
86.504790
 20
102.073250
 42
-0.030444
  0
VERTEX
  8
0
 10
85.094150
 20
102.293750
 42
-0.031293
  0
VERTEX
  8
0
 10
83.980410
 20
102.612194
 42
-0.170670
  0
VERTEX
  8
0
 10
83.500000
 20
103.000000
 42
-0.175584
  0
VERTEX
  8
0
 10
83.245007
 20
104.220573
 42
-0.215004
  0
VERTEX
  8
0
 10
83.863278
 20
105.195360
 42
-0.109795
  0
VERTEX
  8
0
 10
85.490608
 20
105.814011
 42
-0.036160
  0
VERTEX
  8
0
 10
88.059017
 20
106.000000
 42
-0.017886
  0
VERTEX
  8
0
 10
90.171186
 20
105.924418
 42
-0.099850
  0
VERTEX
  8
0
 10
91.257377
 20
105.623128
 42
-0.183507
  0
VERTEX
  8
0
 10
91.806427
 20
105.019641
 42
-0.094082
  0
SEQEND
  0
POLYLINE
  8
0
 66
1
 70
1
  0
VERTEX
  8
0
 10
311.823324
 20
97.667134
 42
-0.082815
  0
VERTEX
  8
0
 10
311.840657
 20
97.008508
 42
-0.120928
  0
VERTEX
  8
0
 10
311.626540
 20
96.471852
 42
-0.131351
  0
VERTEX
  8
0
 10
311.205027
 20
96.124479
 42
-0.107426
  0
VERTEX
  8
0
 10
310.632341
 20
96.000000
 42
-0.107481
  0
VERTEX
  8
0
 10
309.426639
 20
96.262210
 42
-0.135832
  0
VERTEX
  8
0
 10
308.556117
 20
96.992904
 42
-0.150378
  0
VERTEX
  8
0
 10
308.238325
 20
98.005956
 42
-0.140675
  0
VERTEX
  8
0
 10
308.532624
 20
99.052786
 42
-0.174919
  0
VERTEX
  8
0
 10
309.347864
 20
99.699843
 42
-0.182771
  0
VERTEX
  8
0
 10
310.371103
 20
99.661970
 42
-0.142821
  0
VERTEX
  8
0
 10
311.302492
 20
98.905288
 42
-0.103679
  0
SEQEND
  0
POLYLINE
  8
0
 66
1
 70
1
  0
VERTEX
  8
0
 10
349.171431
 20
84.515959
 42
-0.018144
  0
VERTEX
  8
0
 10
353.386191
 20
83.119792
 42
-0.042984
  0
VERTEX
  8
0
 10
356.371785
 20
81.706637
 42
-0.046658
  0
VERTEX
  8
0
 10
358.924085
 20
79.879734
 42
-0.025048
  0
VERTEX
  8
0
 10
361.721599
 20
77.196360
 42
0.000000
  0
VERTEX
  8
0
 10
365.038015
 20
73.679935
 42
0.000000
  0
VERTEX
  8
0
 10
360.940022
 20
71.236187
 42
0.000000
  0
VERTEX
  8
0
 10
356.842030
 20
68.792438
 42
0.000000
  0
VERTEX
  8
0
 10
354.882060
 20
70.896219
 42
0.038805
  0
VERTEX
  8
0
 10
354.005752
 20
71.701524
 42
0.036134
  0
VERTEX
  8
0
 10
352.995211
 20
72.383112
 42
0.038189
  0
VERTEX
  8
0
 10
352.005812
 20
72.854735
 42
0.091829
  0
VERTEX
  8
0
 10
351.211045
 20
73.003738
 42
-0.073827
  0
VERTEX
  8
0
 10
350.336642
 20
73.135508
 42
-0.021146
  0
VERTEX
  8
0
 10
349.040832
 20
73.592780
 42
-0.020791
  0
VERTEX
  8
0
 10
347.604927
 20
74.239371
 42
-0.020713
  0
VERTEX
  8
0
 10
346.225830
 20
75.003738
 42
0.101205
  0
VERTEX
  8
0
 10
341.426452
 20
76.732827
 42
0.041193
  0
VERTEX
  8
0
 10
334.465224
 20
77.163116
 42
0.040981
  0
VERTEX
  8
0
 10
327.259433
 20
76.421762
 42
0.071386
  0
VERTEX
  8
0
 10
321.580522
 20
74.495815
 42
-0.008075
  0
VERTEX
  8
0
 10
319.617573
 20
73.539486
 42
-0.010508
  0
VERTEX
  8
0
 10
317.788737
 20
72.731138
 42
-0.008355
  0
VERTEX
  8
0
 10
316.242846
 20
72.116453
 42
-0.089091
  0
VERTEX
  8
0
 10
315.580522
 20
71.993167
 42
0.176291
  0
VERTEX
  8
0
 10
315.019251
 20
71.784896
 42
0.023627
  0
VERTEX
  8
0
 10
314.083028
 20
70.909979
 42
0.024939
  0
VERTEX
  8
0
 10
313.036355
 20
69.721696
 42
0.018599
  0
VERTEX
  8
0
 10
312.000000
 20
68.315313
 42
-0.007309
  0
VERTEX
  8
0
 10
310.940715
 20
66.807697
 42
-0.007052
  0
VERTEX
  8
0
 10
309.825370
 20
65.313439
 42
-0.006997
  0
VERTEX
  8
0
 10
308.806330
 20
64.025347
 42
-0.025466
  0
VERTEX
  8
0
 10
308.107644
 20
63.251219
 42
0.154505
  0
VERTEX
  8
0
 10
305.883200
 20
58.963351
 42
0.050964
  0
VERTEX
  8
0
 10
305.379827
 20
51.797485
 42
0.050749
  0
VERTEX
  8
0
 10
306.375506
 20
44.362203
 42
0.102611
  0
VERTEX
  8
0
 10
308.875676
 20
39.038236
 42
0.006117
  0
VERTEX
  8
0
 10
311.730722
 20
35.327312
 42
0.018492
  0
VERTEX
  8
0
 10
313.797206
 20
32.898605
 42
0.021819
  0
VERTEX
  8
0
 10
315.347915
 20
31.348526
 42
0.187545
  0
VERTEX
  8
0
 10
316.244412
 20
31.000000
 42
-0.088732
  0
VERTEX
  8
0
 10
316.818943
 20
30.897232
 42
-0.005275
  0
VERTEX
  8
0
 10
318.474063
 20
30.265625
 42
-0.007804
  0
VERTEX
  8
0
 10
320.435723
 20
29.457646
 42
-0.005670
  0
VERTEX
  8
0
 10
322.593712
 20
28.500000
 42
0.054107
  0
VERTEX
  8
0
 10
328.391729
 20
26.572872
 42
0.053245
  0
VERTEX
  8
0
 10
334.500000
 20
25.920548
 42
0.053245
  0
VERTEX
  8
0
 10
340.608271
 20
26.572872
 42
0.054107
  0
VERTEX
  8
0
 10
346.406288
 20
28.500000
 42
-0.009907
  0
VERTEX
  8
0
 10
348.613546
 20
29.457208
 42
-0.011922
  0
VERTEX
  8
0
 10
350.725786
 20
30.265625
 42
-0.010648
  0
VERTEX
  8
0
 10
352.525553
 20
30.862832
 42
-0.074914
  0
VERTEX
  8
0
 10
353.435923
 20
31.000000
 42
0.090975
  0
VERTEX
  8
0
 10
354.033035
 20
31.109551
 42
0.095680
  0
VERTEX
  8
0
 10
354.540552
 20
31.423289
 42
0.099593
  0
VERTEX
  8
0
 10
354.880153
 20
31.891213
 42
0.107732
  0
VERTEX
  8
0
 10
355.000000
 20
32.440983
 42
-0.147890
  0
VERTEX
  8
0
 10
355.440479
 20
33.897620
 42
-0.260861
  0
VERTEX
  8
0
 10
356.527463
 20
34.454076
 42
-0.119980
  0
VERTEX
  8
0
 10
358.369634
 20
33.932272
 42
-0.029822
  0
VERTEX
  8
0
 10
361.019682
 20
32.216913
 42
0.000000
  0
VERTEX
  8
0
 10
364.998737
 20
29.290683
 42
0.000000
  0
VERTEX
  8
0
 10
362.593561
 20
26.895342
 42
-0.009154
  0
VERTEX
  8
0
 10
360.243840
 20
24.639387
 42
-0.024720
  0
VERTEX
  8
0
 10
358.471160
 20
23.154433
 42
-0.033627
  0
VERTEX
  8
0
 10
357.102457
 20
22.256441
 42
-0.129064
  0
VERTEX
  8
0
 10
356.125540
 20
22.000000
 42
0.093935
  0
VERTEX
  8
0
 10
355.734071
 20
21.925800
 42
0.069964
  0
VERTEX
  8
0
 10
355.350419
 20
21.709008
 42
0.068244
  0
VERTEX
  8
0
 10
355.032571
 20
21.388017
 42
0.080073
  0
VERTEX
  8
0
 10
354.833333
 20
21.009390
 42
-0.281269
  0
VERTEX
  8
0
 10
352.037017
 20
18.664420
 42
-0.018395
  0
VERTEX
  8
0
 10
341.088498
 20
17.425527
 42
-0.026188
  0
VERTEX
  8
0
 10
329.496626
 20
17.152757
 42
-0.056552
  0
VERTEX
  8
0
 10
320.675835
 20
18.412185
 42
-0.020696
  0
VERTEX
  8
0
 10
316.188749
 20
19.781497
 42
-0.048659
  0
VERTEX
  8
0
 10
313.015524
 20
21.255344
 42
-0.044687
  0
VERTEX
  8
0
 10
310.030575
 20
23.392514
 42
-0.015160
  0
VERTEX
  8
0
 10
306.087679
 20
27.000000
 42
-0.025271
  0
VERTEX
  8
0
 10
300.259483
 20
33.269413
 42
-0.067310
  0
VERTEX
  8
0
 10
297.000647
 20
38.421491
 42
-0.073265
  0
VERTEX
  8
0
 10
295.379370
 20
43.990192
 42
-0.034274
  0
VERTEX
  8
0
 10
294.863986
 20
51.500000
 42
-0.035055
  0
VERTEX
  8
0
 10
295.404741
 20
59.203496
 42
-0.077312
  0
VERTEX
  8
0
 10
297.112213
 20
64.833189
 42
-0.067122
  0
VERTEX
  8
0
 10
300.619362
 20
70.153229
 42
-0.021386
  0
VERTEX
  8
0
 10
307.166472
 20
77.046523
 42
-0.037116
  0
VERTEX
  8
0
 10
311.513952
 20
80.665354
 42
-0.047546
  0
VERTEX
  8
0
 10
316.017901
 20
83.273941
 42
-0.044484
  0
VERTEX
  8
0
 10
321.171155
 20
85.102863
 42
-0.027220
  0
VERTEX
  8
0
 10
327.500000
 20
86.370648
 42
-0.042861
  0
VERTEX
  8
0
 10
331.815915
 20
86.619538
 42
-0.014328
  0
VERTEX
  8
0
 10
338.132985
 20
86.260849
 42
-0.014607
  0
VERTEX
  8
0
 10
344.516082
 20
85.526217
 42
-0.034964
  0
SEQEND
  0
POLYLINE
  8
0
 66
1
 70
1
  0
VERTEX
  8
0
 10
83.055883
 20
80.155832
 42
-0.056272
  0
VERTEX
  8
0
 10
84.060567
 20
79.135586
 42
-0.062416
  0
VERTEX
  8
0
 10
84.772189
 20
77.950086
 42
-0.059522
  0
VERTEX
  8
0
 10
85.192497
 20
76.576987
 42
-0.044565
  0
VERTEX
  8
0
 10
85.333333
 20
75.000000
 42
-0.102072
  0
VERTEX
  8
0
 10
84.740611
 20
72.126803
 42
-0.117637
  0
VERTEX
  8
0
 10
83.070499
 20
69.888703
 42
-0.105277
  0
VERTEX
  8
0
 10
80.401711
 20
68.479769
 42
-0.069100
  0
VERTEX
  8
0
 10
76.946714
 20
68.000000
 42
0.020421
  0
VERTEX
  8
0
 10
74.520621
 20
67.900870
 42
0.181176
  0
VERTEX
  8
0
 10
73.568877
 20
67.452647
 42
0.161064
  0
VERTEX
  8
0
 10
73.087464
 20
66.463152
 42
0.015300
  0
VERTEX
  8
0
 10
72.807498
 20
63.750000
 42
-0.020638
  0
VERTEX
  8
0
 10
72.584967
 20
61.797742
 42
-0.061917
  0
VERTEX
  8
0
 10
72.216722
 20
60.509583
 42
-0.107424
  0
VERTEX
  8
0
 10
71.692083
 20
59.768681
 42
-0.187300
  0
VERTEX
  8
0
 10
71.000000
 20
59.500000
 42
-0.284554
  0
VERTEX
  8
0
 10
70.226900
 20
59.978742
 42
-0.071039
  0
VERTEX
  8
0
 10
69.738311
 20
61.452865
 42
-0.031767
  0
VERTEX
  8
0
 10
69.421278
 20
64.204843
 42
-0.005537
  0
VERTEX
  8
0
 10
69.211631
 20
69.428821
 42
-0.005089
  0
VERTEX
  8
0
 10
69.138083
 20
73.328401
 42
-0.007028
  0
VERTEX
  8
0
 10
69.156897
 20
76.829147
 42
-0.004646
  0
VERTEX
  8
0
 10
69.240976
 20
79.755611
 42
-0.082283
  0
VERTEX
  8
0
 10
69.430246
 20
80.678821
 42
-0.281627
  0
VERTEX
  8
0
 10
71.019529
 20
81.900483
 42
-0.036187
  0
VERTEX
  8
0
 10
75.505126
 20
82.052953
 42
-0.039527
  0
VERTEX
  8
0
 10
80.188142
 20
81.500740
 42
-0.121662
  0
SEQEND
  0
POLYLINE
  8
0
 66
1
 70
1
  0
VERTEX
  8
0
 10
105.433725
 20
80.848243
 42
-0.084634
  0
VERTEX
  8
0
 10
107.282270
 20
79.593354
 42
-0.102507
  0
VERTEX
  8
0
 10
108.465558
 20
77.868338
 42
-0.126150
  0
VERTEX
  8
0
 10
108.726809
 20
76.091264
 42
-0.173657
  0
VERTEX
  8
0
 10
108.032246
 20
74.649337
 42
-0.132292
  0
VERTEX
  8
0
 10
107.363250
 20
74.270758
 42
-0.181423
  0
VERTEX
  8
0
 10
106.681869
 20
74.343971
 42
-0.095793
  0
VERTEX
  8
0
 10
105.895553
 20
74.950442
 42
-0.022540
  0
VERTEX
  8
0
 10
104.849503
 20
76.250000
 42
0.166711
  0
VERTEX
  8
0
 10
101.412985
 20
78.640339
 42
0.184332
  0
VERTEX
  8
0
 10
97.395317
 20
78.289073
 42
0.157830
  0
VERTEX
  8
0
 10
94.184037
 20
75.207082
 42
0.123843
  0
VERTEX
  8
0
 10
93.000000
 20
70.500000
 42
0.089316
  0
VERTEX
  8
0
 10
93.525823
 20
67.579869
 42
0.071118
  0
VERTEX
  8
0
 10
95.058580
 20
64.762908
 42
0.077116
  0
VERTEX
  8
0
 10
97.154387
 20
62.703837
 42
0.158534
  0
VERTEX
  8
0
 10
99.322580
 20
62.013655
 42
0.033803
  0
VERTEX
  8
0
 10
102.329167
 20
62.236102
 42
0.088574
  0
VERTEX
  8
0
 10
104.377520
 20
62.910631
 42
0.134527
  0
VERTEX
  8
0
 10
105.563558
 20
64.043001
 42
0.136105
  0
VERTEX
  8
0
 10
106.000000
 20
65.616631
 42
0.053503
  0
VERTEX
  8
0
 10
105.866784
 20
66.858004
 42
0.173108
  0
VERTEX
  8
0
 10
105.435319
 20
67.551386
 42
0.138617
  0
VERTEX
  8
0
 10
104.591418
 20
67.904084
 42
0.030108
  0
VERTEX
  8
0
 10
103.000000
 20
68.000000
 42
-0.033114
  0
VERTEX
  8
0
 10
101.653580
 20
68.089268
 42
-0.086652
  0
VERTEX
  8
0
 10
100.732380
 20
68.379566
 42
-0.133357
  0
VERTEX
  8
0
 10
100.197412
 20
68.871289
 42
-0.141520
  0
VERTEX
  8
0
 10
100.000000
 20
69.554791
 42
-0.176746
  0
VERTEX
  8
0
 10
100.268819
 20
70.291503
 42
-0.154644
  0
VERTEX
  8
0
 10
100.964760
 20
70.731888
 42
-0.067366
  0
VERTEX
  8
0
 10
102.306362
 20
70.897463
 42
-0.013087
  0
VERTEX
  8
0
 10
104.750000
 20
70.804791
 42
0.000000
  0
VERTEX
  8
0
 10
109.500000
 20
70.500000
 42
0.000000
  0
VERTEX
  8
0
 10
109.808791
 20
66.223538
 42
-0.019378
  0
VERTEX
  8
0
 10
109.895937
 20
63.609947
 42
-0.126871
  0
VERTEX
  8
0
 10
109.564118
 20
62.351542
 42
-0.141155
  0
VERTEX
  8
0
 10
108.680284
 20
61.476969
 42
-0.025980
  0
VERTEX
  8
0
 10
106.590909
 20
60.473538
 42
-0.065087
  0
VERTEX
  8
0
 10
101.882260
 20
59.191703
 42
-0.086731
  0
VERTEX
  8
0
 10
97.460155
 20
59.356413
 42
-0.091660
  0
VERTEX
  8
0
 10
93.538682
 20
60.982436
 42
-0.082064
  0
VERTEX
  8
0
 10
90.281803
 20
63.954109
 42
-0.138877
  0
VERTEX
  8
0
 10
89.334075
 20
66.250517
 42
-0.030648
  0
VERTEX
  8
0
 10
89.101197
 20
70.547463
 42
-0.030988
  0
VERTEX
  8
0
 10
89.399136
 20
74.852975
 42
-0.130350
  0
VERTEX
  8
0
 10
90.376490
 20
77.228725
 42
-0.095785
  0
VERTEX
  8
0
 10
93.307274
 20
79.853051
 42
-0.075994
  0
VERTEX
  8
0
 10
97.249767
 20
81.462601
 42
-0.075321
  0
VERTEX
  8
0
 10
101.528347
 20
81.829525
 42
-0.090928
  0
SEQEND
  0
POLYLINE
  8
0
 66
1
 70
1
  0
VERTEX
  8
0
 10
126.545455
 20
79.545455
 42
-0.050640
  0
VERTEX
  8
0
 10
127.841077
 20
77.956979
 42
-0.079677
  0
VERTEX
  8
0
 10
128.563793
 20
76.355820
 42
-0.053798
  0
VERTEX
  8
0
 10
128.907750
 20
74.189831
 42
-0.012499
  0
VERTEX
  8
0
 10
129.000000
 20
70.500000
 42
-0.012499
  0
VERTEX
  8
0
 10
128.907750
 20
66.810169
 42
-0.053798
  0
VERTEX
  8
0
 10
128.563793
 20
64.644180
 42
-0.079677
  0
VERTEX
  8
0
 10
127.841077
 20
63.043021
 42
-0.050640
  0
VERTEX
  8
0
 10
126.545455
 20
61.454545
 42
-0.082654
  0
VERTEX
  8
0
 10
124.108277
 20
59.712909
 42
-0.114378
  0
VERTEX
  8
0
 10
121.500000
 20
59.108340
 42
-0.114378
  0
VERTEX
  8
0
 10
118.891723
 20
59.712909
 42
-0.082654
  0
VERTEX
  8
0
 10
116.454545
 20
61.454545
 42
-0.050640
  0
VERTEX
  8
0
 10
115.158923
 20
63.043021
 42
-0.079677
  0
VERTEX
  8
0
 10
114.436207
 20
64.644180
 42
-0.053798
  0
VERTEX
  8
0
 10
114.092250
 20
66.810169
 42
-0.012499
  0
VERTEX
  8
0
 10
114.000000
 20
70.500000
 42
-0.012499
  0
VERTEX
  8
0
 10
114.092250
 20
74.189831
 42
-0.053798
  0
VERTEX
  8
0
 10
114.436207
 20
76.355820
 42
-0.079677
  0
VERTEX
  8
0
 10
115.158923
 20
77.956979
 42
-0.050640
  0
VERTEX
  8
0
 10
116.454545
 20
79.545455
 42
-0.046014
  0
VERTEX
  8
0
 10
117.584818
 20
80.484854
 42
-0.037190
  0
VERTEX
  8
0
 10
118.949148
 20
81.278977
 42
-0.038507
  0
VERTEX
  8
0
 10
120.330305
 20
81.823919
 42
-0.074846
  0
VERTEX
  8
0
 10
121.500000
 20
82.000000
 42
-0.074846
  0
VERTEX
  8
0
 10
122.669695
 20
81.823919
 42
-0.038507
  0
VERTEX
  8
0
 10
124.050852
 20
81.278977
 42
-0.037190
  0
VERTEX
  8
0
 10
125.415182
 20
80.484854
 42
-0.046014
  0
SEQEND
  0
POLYLINE
  8
0
 66
1
 70
1
  0
VERTEX
  8
0
 10
145.777494
 20
80.443296
 42
-0.062773
  0
VERTEX
  8
0
 10
146.800933
 20
79.515550
 42
-0.075652
  0
VERTEX
  8
0
 10
147.487498
 20
78.415594
 42
-0.066173
  0
VERTEX
  8
0
 10
147.874540
 20
77.042970
 42
-0.035686
  0
VERTEX
  8
0
 10
148.000000
 20
75.287365
 42
-0.056444
  0
VERTEX
  8
0
 10
147.762291
 20
73.188358
 42
-0.082691
  0
VERTEX
  8
0
 10
147.056157
 20
71.473147
 42
-0.054973
  0
VERTEX
  8
0
 10
145.607944
 20
69.627744
 42
-0.013044
  0
VERTEX
  8
0
 10
142.795532
 20
66.903420
 42
0.000000
  0
VERTEX
  8
0
 10
137.591064
 20
62.118701
 42
0.000000
  0
VERTEX
  8
0
 10
142.808655
 20
61.809351
 42
-0.016805
  0
VERTEX
  8
0
 10
147.683337
 20
61.355543
 42
-0.542380
  0
VERTEX
  8
0
 10
148.116665
 20
60.459434
 42
-0.238189
  0
VERTEX
  8
0
 10
146.693078
 20
59.567711
 42
-0.012869
  0
VERTEX
  8
0
 10
141.235539
 20
59.205899
 42
-0.022927
  0
VERTEX
  8
0
 10
134.922945
 20
59.239877
 42
-0.308585
  0
VERTEX
  8
0
 10
133.175228
 20
60.568104
 42
-0.271029
  0
VERTEX
  8
0
 10
133.655782
 20
62.856011
 42
-0.019230
  0
VERTEX
  8
0
 10
138.398771
 20
67.700354
 42
0.011055
  0
VERTEX
  8
0
 10
141.348523
 20
70.616237
 42
0.045122
  0
VERTEX
  8
0
 10
142.929290
 20
72.575517
 42
0.077172
  0
VERTEX
  8
0
 10
143.676305
 20
74.184523
 42
0.099215
  0
VERTEX
  8
0
 10
143.810973
 20
75.806471
 42
0.131379
  0
VERTEX
  8
0
 10
142.975799
 20
77.920740
 42
0.206684
  0
VERTEX
  8
0
 10
141.312638
 20
78.885638
 42
0.178514
  0
VERTEX
  8
0
 10
139.266682
 20
78.395286
 42
0.100895
  0
VERTEX
  8
0
 10
137.448188
 20
76.561269
 42
-0.034755
  0
VERTEX
  8
0
 10
136.703811
 20
75.581117
 42
-0.038869
  0
VERTEX
  8
0
 10
135.856113
 20
74.752373
 42
-0.042372
  0
VERTEX
  8
0
 10
135.032579
 20
74.174704
 42
-0.132519
  0
VERTEX
  8
0
 10
134.384990
 20
74.000000
 42
-0.276437
  0
VERTEX
  8
0
 10
133.303403
 20
74.647458
 42
-0.176759
  0
VERTEX
  8
0
 10
133.089858
 20
76.140257
 42
-0.100589
  0
VERTEX
  8
0
 10
133.961223
 20
78.154333
 42
-0.073998
  0
VERTEX
  8
0
 10
135.634859
 20
79.927420
 42
-0.072189
  0
VERTEX
  8
0
 10
138.085379
 20
81.338278
 42
-0.082044
  0
VERTEX
  8
0
 10
140.730485
 20
81.914629
 42
-0.084253
  0
VERTEX
  8
0
 10
143.362591
 20
81.604486
 42
-0.081584
  0
SEQEND
  0
POLYLINE
  8
0
 66
1
 70
1
  0
VERTEX
  8
0
 10
166.599291
 20
79.491618
 42
-0.048620
  0
VERTEX
  8
0
 10
168.043429
 20
77.735556
 42
-0.155863
  0
VERTEX
  8
0
 10
168.459715
 20
76.297809
 42
-0.266207
  0
VERTEX
  8
0
 10
167.889400
 20
75.362890
 42
-0.126341
  0
VERTEX
  8
0
 10
166.476167
 20
75.000000
 42
-0.115677
  0
VERTEX
  8
0
 10
165.860004
 20
75.144485
 42
-0.054744
  0
VERTEX
  8
0
 10
165.168901
 20
75.587500
 42
-0.050068
  0
VERTEX
  8
0
 10
164.513708
 20
76.234973
 42
-0.050010
  0
VERTEX
  8
0
 10
164.000000
 20
77.000000
 42
0.143179
  0
VERTEX
  8
0
 10
162.685088
 20
78.340339
 42
0.108577
  0
VERTEX
  8
0
 10
160.704083
 20
78.940658
 42
0.106621
  0
VERTEX
  8
0
 10
158.623642
 20
78.659127
 42
0.133568
  0
VERTEX
  8
0
 10
157.036355
 20
77.543805
 42
0.137421
  0
VERTEX
  8
0
 10
156.390605
 20
76.096212
 42
0.247651
  0
VERTEX
  8
0
 10
156.811686
 20
74.902301
 42
0.099642
  0
VERTEX
  8
0
 10
158.589105
 20
73.818504
 42
0.016508
  0
VERTEX
  8
0
 10
162.420463
 20
72.566146
 42
-0.018049
  0
VERTEX
  8
0
 10
165.212997
 20
71.643816
 42
-0.060776
  0
VERTEX
  8
0
 10
166.919453
 20
70.762994
 42
-0.087965
  0
VERTEX
  8
0
 10
168.011246
 20
69.697132
 42
-0.071750
  0
VERTEX
  8
0
 10
168.764616
 20
68.245379
 42
-0.116560
  0
VERTEX
  8
0
 10
169.144289
 20
64.585028
 42
-0.157792
  0
VERTEX
  8
0
 10
167.732038
 20
61.598549
 42
-0.132457
  0
VERTEX
  8
0
 10
164.585769
 20
59.657870
 42
-0.072455
  0
VERTEX
  8
0
 10
160.069759
 20
59.000000
 42
-0.098164
  0
VERTEX
  8
0
 10
157.441843
 20
59.520955
 42
-0.063511
  0
VERTEX
  8
0
 10
154.739843
 20
61.061761
 42
-0.066659
  0
VERTEX
  8
0
 10
152.676525
 20
63.095694
 42
-0.166373
  0
VERTEX
  8
0
 10
152.000000
 20
65.072580
 42
-0.152811
  0
VERTEX
  8
0
 10
152.432725
 20
66.455400
 42
-0.280372
  0
VERTEX
  8
0
 10
153.474725
 20
66.917654
 42
-0.155604
  0
VERTEX
  8
0
 10
154.945508
 20
66.229001
 42
-0.061106
  0
VERTEX
  8
0
 10
156.408043
 20
64.500000
 42
0.103163
  0
VERTEX
  8
0
 10
158.053094
 20
62.855742
 42
0.112157
  0
VERTEX
  8
0
 10
160.170735
 20
62.067885
 42
0.120793
  0
VERTEX
  8
0
 10
162.298590
 20
62.297786
 42
0.133287
  0
VERTEX
  8
0
 10
163.989431
 20
63.487265
 42
0.131883
  0
VERTEX
  8
0
 10
164.749837
 20
65.143232
 42
0.201351
  0
VERTEX
  8
0
 10
164.395615
 20
66.661748
 42
0.127220
  0
VERTEX
  8
0
 10
162.812422
 20
67.971496
 42
0.043789
  0
VERTEX
  8
0
 10
159.998749
 20
69.000337
 42
-0.066085
  0
VERTEX
  8
0
 10
155.245079
 20
70.982256
 42
-0.147936
  0
VERTEX
  8
0
 10
152.603909
 20
73.816975
 42
-0.207654
  0
VERTEX
  8
0
 10
152.456524
 20
76.961421
 42
-0.136241
  0
VERTEX
  8
0
 10
154.634859
 20
79.927420
 42
-0.086203
  0
VERTEX
  8
0
 10
157.568194
 20
81.509156
 42
-0.089982
  0
VERTEX
  8
0
 10
160.818693
 20
81.977412
 42
-0.092110
  0
VERTEX
  8
0
 10
163.964056
 20
81.273684
 42
-0.095687
  0
SEQEND
  0
POLYLINE
  8
0
 66
1
 70
1
  0
VERTEX
  8
0
 10
185.793810
 20
74.170009
 42
0.009104
  0
VERTEX
  8
0
 10
186.005139
 20
70.602183
 42
0.040527
  0
VERTEX
  8
0
 10
186.335884
 20
68.531395
 42
0.083720
  0
VERTEX
  8
0
 10
186.827003
 20
67.390340
 42
0.254624
  0
VERTEX
  8
0
 10
187.543810
 20
67.000000
 42
-0.102109
  0
VERTEX
  8
0
 10
188.099484
 20
66.885326
 42
-0.098616
  0
VERTEX
  8
0
 10
188.572244
 20
66.559375
 42
-0.097192
  0
VERTEX
  8
0
 10
188.888993
 20
66.072525
 42
-0.096051
  0
VERTEX
  8
0
 10
189.000000
 20
65.500000
 42
-0.094292
  0
VERTEX
  8
0
 10
188.891054
 20
64.927433
 42
-0.096703
  0
VERTEX
  8
0
 10
188.579806
 20
64.440625
 42
-0.098980
  0
VERTEX
  8
0
 10
188.115367
 20
64.114767
 42
-0.103996
  0
VERTEX
  8
0
 10
187.569551
 20
64.000000
 42
0.145606
  0
VERTEX
  8
0
 10
186.999009
 20
63.830253
 42
0.083039
  0
VERTEX
  8
0
 10
186.465428
 20
63.339062
 42
0.070703
  0
VERTEX
  8
0
 10
186.048322
 20
62.610354
 42
0.059475
  0
VERTEX
  8
0
 10
185.819551
 20
61.750000
 42
-0.062417
  0
VERTEX
  8
0
 10
185.585407
 20
60.889773
 42
-0.072525
  0
VERTEX
  8
0
 10
185.153243
 20
60.160938
 42
-0.084080
  0
VERTEX
  8
0
 10
184.597059
 20
59.670152
 42
-0.139711
  0
VERTEX
  8
0
 10
184.000000
 20
59.500000
 42
-0.139711
  0
VERTEX
  8
0
 10
183.402941
 20
59.670152
 42
-0.084080
  0
VERTEX
  8
0
 10
182.846757
 20
60.160938
 42
-0.072525
  0
VERTEX
  8
0
 10
182.414593
 20
60.889773
 42
-0.062417
  0
VERTEX
  8
0
 10
182.180449
 20
61.750000
 42
0.077799
  0
VERTEX
  8
0
 10
181.818563
 20
62.935124
 42
0.168206
  0
VERTEX
  8
0
 10
181.153409
 20
63.600885
 42
0.096975
  0
VERTEX
  8
0
 10
179.945639
 20
63.921165
 42
0.016469
  0
VERTEX
  8
0
 10
177.552894
 20
64.000000
 42
-0.050168
  0
VERTEX
  8
0
 10
173.276690
 20
64.430141
 42
-0.343466
  0
VERTEX
  8
0
 10
171.988264
 20
65.933362
 42
-0.165573
  0
VERTEX
  8
0
 10
172.767703
 20
68.631280
 42
-0.014568
  0
VERTEX
  8
0
 10
177.063667
 20
74.418728
 42
-0.011160
  0
VERTEX
  8
0
 10
179.476737
 20
77.342453
 42
-0.017292
  0
VERTEX
  8
0
 10
181.699948
 20
79.743776
 42
-0.011793
  0
VERTEX
  8
0
 10
183.607749
 20
81.577962
 42
-0.271744
  0
VERTEX
  8
0
 10
184.318432
 20
81.730531
 42
-0.242782
  0
VERTEX
  8
0
 10
184.834416
 20
81.203964
 42
-0.026551
  0
VERTEX
  8
0
 10
185.260034
 20
79.507482
 42
-0.025325
  0
VERTEX
  8
0
 10
185.595380
 20
77.163138
 42
-0.012622
  0
SEQEND
  0
POLYLINE
  8
0
 66
1
 70
1
  0
VERTEX
  8
0
 10
203.349331
 20
81.057284
 42
-0.101800
  0
VERTEX
  8
0
 10
205.335826
 20
79.794566
 42
-0.130443
  0
VERTEX
  8
0
 10
206.449731
 20
77.945746
 42
-0.125753
  0
VERTEX
  8
0
 10
206.521938
 20
75.734182
 42
-0.090870
  0
VERTEX
  8
0
 10
205.559875
 20
73.451037
 42
0.023354
  0
VERTEX
  8
0
 10
205.004302
 20
72.510045
 42
0.048072
  0
VERTEX
  8
0
 10
204.679021
 20
71.719992
 42
0.086267
  0
VERTEX
  8
0
 10
204.614135
 20
71.192480
 42
0.399725
  0
VERTEX
  8
0
 10
204.816432
 20
71.000000
 42
-0.262605
  0
VERTEX
  8
0
 10
205.988695
 20
70.338713
 42
-0.063806
  0
VERTEX
  8
0
 10
206.921184
 20
68.228729
 42
-0.059647
  0
VERTEX
  8
0
 10
207.357917
 20
65.677471
 42
-0.103797
  0
VERTEX
  8
0
 10
207.024623
 20
63.564764
 42
-0.171552
  0
VERTEX
  8
0
 10
204.150133
 20
60.173563
 42
-0.135875
  0
VERTEX
  8
0
 10
199.473012
 20
58.940427
 42
-0.134342
  0
VERTEX
  8
0
 10
194.787772
 20
60.284619
 42
-0.166769
  0
VERTEX
  8
0
 10
191.904612
 20
63.750890
 42
-0.045338
  0
VERTEX
  8
0
 10
191.498524
 20
65.202889
 42
-0.091221
  0
VERTEX
  8
0
 10
191.498342
 20
66.388201
 42
-0.082265
  0
VERTEX
  8
0
 10
191.925810
 20
67.574159
 42
-0.031643
  0
VERTEX
  8
0
 10
192.878606
 20
69.049676
 42
0.017220
  0
VERTEX
  8
0
 10
193.975403
 20
70.645306
 42
0.117838
  0
VERTEX
  8
0
 10
194.285104
 20
71.540210
 42
0.174026
  0
VERTEX
  8
0
 10
194.092742
 20
72.306258
 42
0.048732
  0
VERTEX
  8
0
 10
193.296476
 20
73.274952
 42
-0.193880
  0
VERTEX
  8
0
 10
192.215701
 20
75.814290
 42
-0.155401
  0
VERTEX
  8
0
 10
193.069312
 20
78.685756
 42
-0.124215
  0
VERTEX
  8
0
 10
195.673943
 20
80.999594
 42
-0.110201
  0
VERTEX
  8
0
 10
199.184900
 20
81.932320
 42
-0.043910
  0
VERTEX
  8
0
 10
200.004042
 20
81.893286
 42
-0.017934
  0
VERTEX
  8
0
 10
201.103223
 20
81.703196
 42
-0.017581
  0
VERTEX
  8
0
 10
202.276492
 20
81.413257
 42
-0.021477
  0
SEQEND
  0
POLYLINE
  8
0
 66
1
 70
1
  0
VERTEX
  8
0
 10
223.545455
 20
79.545455
 42
-0.050640
  0
VERTEX
  8
0
 10
224.841077
 20
77.956979
 42
-0.079677
  0
VERTEX
  8
0
 10
225.563793
 20
76.355820
 42
-0.053798
  0
VERTEX
  8
0
 10
225.907750
 20
74.189831
 42
-0.012499
  0
VERTEX
  8
0
 10
226.000000
 20
70.500000
 42
-0.012499
  0
VERTEX
  8
0
 10
225.907750
 20
66.810169
 42
-0.053798
  0
VERTEX
  8
0
 10
225.563793
 20
64.644180
 42
-0.079677
  0
VERTEX
  8
0
 10
224.841077
 20
63.043021
 42
-0.050640
  0
VERTEX
  8
0
 10
223.545455
 20
61.454545
 42
-0.082654
  0
VERTEX
  8
0
 10
221.108277
 20
59.712909
 42
-0.114378
  0
VERTEX
  8
0
 10
218.500000
 20
59.108340
 42
-0.114378
  0
VERTEX
  8
0
 10
215.891723
 20
59.712909
 42
-0.082654
  0
VERTEX
  8
0
 10
213.454545
 20
61.454545
 42
-0.050640
  0
VERTEX
  8
0
 10
212.158923
 20
63.043021
 42
-0.079677
  0
VERTEX
  8
0
 10
211.436207
 20
64.644180
 42
-0.053798
  0
VERTEX
  8
0
 10
211.092250
 20
66.810169
 42
-0.012499
  0
VERTEX
  8
0
 10
211.000000
 20
70.500000
 42
-0.012499
  0
VERTEX
  8
0
 10
211.092250
 20
74.189831
 42
-0.053798
  0
VERTEX
  8
0
 10
211.436207
 20
76.355820
 42
-0.079677
  0
VERTEX
  8
0
 10
212.158923
 20
77.956979
 42
-0.050640
  0
VERTEX
  8
0
 10
213.454545
 20
79.545455
 42
-0.046014
  0
VERTEX
  8
0
 10
214.584818
 20
80.484854
 42
-0.037190
  0
VERTEX
  8
0
 10
215.949148
 20
81.278977
 42
-0.038507
  0
VERTEX
  8
0
 10
217.330305
 20
81.823919
 42
-0.074846
  0
VERTEX
  8
0
 10
218.500000
 20
82.000000
 42
-0.074846
  0
VERTEX
  8
0
 10
219.669695
 20
81.823919
 42
-0.038507
  0
VERTEX
  8
0
 10
221.050852
 20
81.278977
 42
-0.037190
  0
VERTEX
  8
0
 10
222.415182
 20
80.484854
 42
-0.046014
  0
SEQEND
  0
POLYLINE
  8
0
 66
1
 70
1
  0
VERTEX
  8
0
 10
241.777494
 20
80.443296
 42
-0.101412
  0
VERTEX
  8
0
 10
243.147540
 20
78.995032
 42
-0.095503
  0
VERTEX
  8
0
 10
243.874197
 20
77.093912
 42
-0.093373
  0
VERTEX
  8
0
 10
243.850273
 20
75.021865
 42
-0.091906
  0
VERTEX
  8
0
 10
243.075438
 20
73.087821
 42
0.086133
  0
VERTEX
  8
0
 10
242.786984
 20
72.391044
 42
0.100666
  0
VERTEX
  8
0
 10
242.772685
 20
71.676394
 42
0.091659
  0
VERTEX
  8
0
 10
243.044460
 20
70.961868
 42
0.059854
  0
VERTEX
  8
0
 10
243.590751
 20
70.266392
 42
-0.130198
  0
VERTEX
  8
0
 10
244.630966
 20
68.476530
 42
-0.071622
  0
VERTEX
  8
0
 10
244.947678
 20
65.946226
 42
-0.071025
  0
VERTEX
  8
0
 10
244.536520
 20
63.403162
 42
-0.121415
  0
VERTEX
  8
0
 10
243.430073
 20
61.572930
 42
-0.142658
  0
VERTEX
  8
0
 10
239.654169
 20
59.500359
 42
-0.118912
  0
VERTEX
  8
0
 10
235.061163
 20
59.583603
 42
-0.134056
  0
VERTEX
  8
0
 10
231.396307
 20
61.688572
 42
-0.198267
  0
VERTEX
  8
0
 10
230.000000
 20
65.071429
 42
-0.142885
  0
VERTEX
  8
0
 10
230.409126
 20
66.473861
 42
-0.296144
  0
VERTEX
  8
0
 10
231.404020
 20
66.926855
 42
-0.177281
  0
VERTEX
  8
0
 10
232.709440
 20
66.214584
 42
-0.073350
  0
VERTEX
  8
0
 10
233.818046
 20
64.500000
 42
0.167367
  0
VERTEX
  8
0
 10
235.773827
 20
62.438910
 42
0.214982
  0
VERTEX
  8
0
 10
238.353872
 20
62.293161
 42
0.193482
  0
VERTEX
  8
0
 10
240.372183
 20
64.170878
 42
0.146038
  0
VERTEX
  8
0
 10
240.826764
 20
67.194958
 42
0.071742
  0
VERTEX
  8
0
 10
240.492821
 20
68.338768
 42
0.130422
  0
VERTEX
  8
0
 10
239.879581
 20
69.086832
 42
0.100652
  0
VERTEX
  8
0
 10
238.853923
 20
69.549928
 42
0.031950
  0
VERTEX
  8
0
 10
237.189295
 20
69.817886
 42
-0.058937
  0
VERTEX
  8
0
 10
235.008392
 20
70.290626
 42
-0.310329
  0
VERTEX
  8
0
 10
234.317114
 20
71.223387
 42
-0.295589
  0
VERTEX
  8
0
 10
234.929741
 20
72.248107
 42
-0.056391
  0
VERTEX
  8
0
 10
237.074139
 20
73.017502
 42
0.056864
  0
VERTEX
  8
0
 10
238.198495
 20
73.422109
 42
0.108939
  0
VERTEX
  8
0
 10
238.942927
 20
74.019263
 42
0.110436
  0
VERTEX
  8
0
 10
239.361043
 20
74.867998
 42
0.059509
  0
VERTEX
  8
0
 10
239.500000
 20
76.031390
 42
0.139990
  0
VERTEX
  8
0
 10
238.955511
 20
77.938015
 42
0.220650
  0
VERTEX
  8
0
 10
237.556971
 20
78.854516
 42
0.175233
  0
VERTEX
  8
0
 10
235.670477
 20
78.469802
 42
0.094173
  0
VERTEX
  8
0
 10
233.887751
 20
76.855339
 42
-0.028611
  0
VERTEX
  8
0
 10
232.995805
 20
75.805581
 42
-0.098187
  0
VERTEX
  8
0
 10
232.267805
 20
75.292918
 42
-0.168257
  0
VERTEX
  8
0
 10
231.627340
 20
75.238729
 42
-0.134445
  0
VERTEX
  8
0
 10
231.021209
 20
75.582783
 42
-0.164244
  0
VERTEX
  8
0
 10
230.410043
 20
76.811223
 42
-0.138077
  0
VERTEX
  8
0
 10
230.611476
 20
78.257976
 42
-0.106303
  0
VERTEX
  8
0
 10
231.637381
 20
79.681203
 42
-0.071186
  0
VERTEX
  8
0
 10
233.308337
 20
80.805536
 42
-0.050933
  0
VERTEX
  8
0
 10
235.614774
 20
81.643201
 42
-0.072461
  0
VERTEX
  8
0
 10
237.780848
 20
81.864744
 42
-0.076703
  0
VERTEX
  8
0
 10
239.826711
 20
81.458856
 42
-0.065608
  0
SEQEND
  0
POLYLINE
  8
0
 66
1
 70
1
  0
VERTEX
  8
0
 10
260.729582
 20
80.750000
 42
-0.055425
  0
VERTEX
  8
0
 10
261.277024
 20
79.859950
 42
-0.003702
  0
VERTEX
  8
0
 10
262.536187
 20
77.138043
 42
-0.005300
  0
VERTEX
  8
0
 10
263.981990
 20
73.859016
 42
-0.003940
  0
VERTEX
  8
0
 10
265.511322
 20
70.209296
 42
-0.007738
  0
VERTEX
  8
0
 10
267.231230
 20
65.819879
 42
-0.024985
  0
VERTEX
  8
0
 10
268.180838
 20
62.834937
 42
-0.034193
  0
VERTEX
  8
0
 10
268.572856
 20
60.793147
 42
-0.230646
  0
VERTEX
  8
0
 10
268.246428
 20
59.846428
 42
-0.164888
  0
VERTEX
  8
0
 10
267.162380
 20
59.311276
 42
-0.177477
  0
VERTEX
  8
0
 10
266.014046
 20
59.567542
 42
-0.111603
  0
VERTEX
  8
0
 10
264.903917
 20
60.695011
 42
-0.048047
  0
VERTEX
  8
0
 10
263.963068
 20
62.597139
 42
0.066810
  0
VERTEX
  8
0
 10
263.280773
 20
63.855798
 42
0.131458
  0
VERTEX
  8
0
 10
262.401471
 20
64.565716
 42
0.086420
  0
VERTEX
  8
0
 10
261.028575
 20
64.909537
 42
0.018246
  0
VERTEX
  8
0
 10
258.550431
 20
65.000000
 42
0.020491
  0
VERTEX
  8
0
 10
255.974775
 20
64.894399
 42
0.094872
  0
VERTEX
  8
0
 10
254.545500
 20
64.497094
 42
0.118508
  0
VERTEX
  8
0
 10
253.527273
 20
63.646004
 42
0.040373
  0
VERTEX
  8
0
 10
252.500000
 20
62.000000
 42
-0.038044
  0
VERTEX
  8
0
 10
251.300835
 20
60.058525
 42
-0.134913
  0
VERTEX
  8
0
 10
250.166963
 20
59.154220
 42
-0.268368
  0
VERTEX
  8
0
 10
249.203047
 20
59.269812
 42
-0.141090
  0
VERTEX
  8
0
 10
248.452004
 20
60.264480
 42
-0.180343
  0
VERTEX
  8
0
 10
248.435493
 20
61.992050
 42
-0.003790
  0
VERTEX
  8
0
 10
251.458957
 20
70.151174
 42
-0.006763
  0
VERTEX
  8
0
 10
254.514923
 20
77.892532
 42
-0.074419
  0
VERTEX
  8
0
 10
256.220279
 20
80.750000
 42
-0.052781
  0
VERTEX
  8
0
 10
256.705034
 20
81.228306
 42
-0.042949
  0
VERTEX
  8
0
 10
257.312599
 20
81.632812
 42
-0.044571
  0
VERTEX
  8
0
 10
257.944794
 20
81.909438
 42
-0.081022
  0
VERTEX
  8
0
 10
258.500000
 20
82.000000
 42
-0.081783
  0
VERTEX
  8
0
 10
259.051678
 20
81.909157
 42
-0.046176
  0
VERTEX
  8
0
 10
259.672673
 20
81.632812
 42
-0.044540
  0
VERTEX
  8
0
 10
260.263974
 20
81.228283
 42
-0.054959
  0
SEQEND
  0
POLYLINE
  8
0
 66
1
 70
1
  0
VERTEX
  8
0
 10
331.000000
 20
67.000000
 42
0.000000
  0
VERTEX
  8
0
 10
331.000000
 20
61.000000
 42
0.000000
  0
VERTEX
  8
0
 10
327.000000
 20
61.000000
 42
-0.020356
  0
VERTEX
  8
0
 10
325.118332
 20
61.076637
 42
-0.068912
  0
VERTEX
  8
0
 10
323.921045
 20
61.343138
 42
-0.127335
  0
VERTEX
  8
0
 10
323.250604
 20
61.811653
 42
-0.178758
  0
VERTEX
  8
0
 10
323.000000
 20
62.490213
 42
0.061311
  0
VERTEX
  8
0
 10
322.913018
 20
63.196898
 42
0.372818
  0
VERTEX
  8
0
 10
322.634793
 20
63.392246
 42
0.140693
  0
VERTEX
  8
0
 10
322.127606
 20
63.189011
 42
0.011858
  0
VERTEX
  8
0
 10
321.024402
 20
62.288866
 42
0.046496
  0
VERTEX
  8
0
 10
319.937826
 20
61.167794
 42
0.257006
  0
VERTEX
  8
0
 10
319.797687
 20
60.369262
 42
0.117466
  0
VERTEX
  8
0
 10
320.391843
 20
59.428390
 42
0.007478
  0
VERTEX
  8
0
 10
322.774402
 20
57.169660
 42
0.007389
  0
VERTEX
  8
0
 10
324.365779
 20
55.748394
 42
0.006508
  0
VERTEX
  8
0
 10
326.066543
 20
54.312368
 42
0.006551
  0
VERTEX
  8
0
 10
327.634272
 20
53.057308
 42
0.019575
  0
VERTEX
  8
0
 10
328.750000
 20
52.255997
 42
-0.098628
  0
VERTEX
  8
0
 10
330.001293
 20
51.017376
 42
-0.102496
  0
VERTEX
  8
0
 10
330.661188
 20
49.410118
 42
-0.041835
  0
VERTEX
  8
0
 10
330.942157
 20
46.656571
 42
-0.004517
  0
VERTEX
  8
0
 10
331.000000
 20
40.253321
 42
0.000000
  0
VERTEX
  8
0
 10
331.000000
 20
29.736662
 42
0.000000
  0
VERTEX
  8
0
 10
326.771503
 20
30.303822
 42
-0.022030
  0
VERTEX
  8
0
 10
325.126182
 20
30.598779
 42
-0.030152
  0
VERTEX
  8
0
 10
323.680894
 20
31.017079
 42
-0.030540
  0
VERTEX
  8
0
 10
322.575827
 20
31.488300
 42
-0.198786
  0
VERTEX
  8
0
 10
322.188170
 20
31.935491
 42
0.090057
  0
VERTEX
  8
0
 10
321.965120
 20
32.342444
 42
0.069803
  0
VERTEX
  8
0
 10
321.594858
 20
32.687659
 42
0.069017
  0
VERTEX
  8
0
 10
321.139164
 20
32.920979
 42
0.083782
  0
VERTEX
  8
0
 10
320.666667
 20
33.001221
 42
-0.162136
  0
VERTEX
  8
0
 10
319.035049
 20
33.546493
 42
-0.031734
  0
VERTEX
  8
0
 10
316.649789
 20
35.586115
 42
-0.032069
  0
VERTEX
  8
0
 10
314.165900
 20
38.329543
 42
-0.031273
  0
VERTEX
  8
0
 10
312.030534
 20
41.390351
 42
-0.008723
  0
VERTEX
  8
0
 10
310.576853
 20
43.876097
 42
-0.104205
  0
VERTEX
  8
0
 10
310.245454
 20
44.932190
 42
-0.209554
  0
VERTEX
  8
0
 10
310.502230
 20
45.715621
 42
-0.052440
  0
VERTEX
  8
0
 10
311.522828
 20
46.640351
 42
-0.076052
  0
VERTEX
  8
0
 10
313.940080
 20
47.897448
 42
-0.152809
  0
VERTEX
  8
0
 10
316.068515
 20
47.949555
 42
-0.159706
  0
VERTEX
  8
0
 10
317.784038
 20
46.787119
 42
-0.085143
  0
VERTEX
  8
0
 10
319.000000
 20
44.500000
 42
0.027489
  0
VERTEX
  8
0
 10
320.138176
 20
41.597747
 42
0.373347
  0
VERTEX
  8
0
 10
321.094947
 20
41.161897
 42
0.306306
  0
VERTEX
  8
0
 10
321.842885
 20
42.069701
 42
0.023675
  0
VERTEX
  8
0
 10
322.000000
 20
45.386059
 42
0.021937
  0
VERTEX
  8
0
 10
321.885146
 20
48.002605
 42
0.113584
  0
VERTEX
  8
0
 10
321.441063
 20
49.370410
 42
0.121088
  0
VERTEX
  8
0
 10
320.457489
 20
50.362410
 42
0.026405
  0
VERTEX
  8
0
 10
318.324211
 20
51.516393
 42
-0.035969
  0
VERTEX
  8
0
 10
314.822211
 20
53.498194
 42
-0.061101
  0
VERTEX
  8
0
 10
312.270427
 20
55.686784
 42
-0.081409
  0
VERTEX
  8
0
 10
310.841637
 20
57.880214
 42
-0.169258
  0
VERTEX
  8
0
 10
310.681421
 20
59.889755
 42
-0.036845
  0
VERTEX
  8
0
 10
310.957592
 20
60.697523
 42
-0.048579
  0
VERTEX
  8
0
 10
311.330649
 20
61.380116
 42
-0.057565
  0
VERTEX
  8
0
 10
311.738642
 20
61.852623
 42
-0.188055
  0
VERTEX
  8
0
 10
312.116631
 20
62.000000
 42
0.160979
  0
VERTEX
  8
0
 10
312.453576
 20
62.111368
 42
0.096527
  0
VERTEX
  8
0
 10
312.740510
 20
62.425676
 42
0.078036
  0
VERTEX
  8
0
 10
312.934318
 20
62.894909
 42
0.059052
  0
VERTEX
  8
0
 10
313.000000
 20
63.449109
 42
-0.197509
  0
VERTEX
  8
0
 10
313.600079
 20
64.908970
 42
-0.023759
  0
VERTEX
  8
0
 10
316.216526
 20
67.313862
 42
-0.025642
  0
VERTEX
  8
0
 10
319.068231
 20
69.457142
 42
-0.149407
  0
VERTEX
  8
0
 10
320.844391
 20
70.000000
 42
0.078703
  0
VERTEX
  8
0
 10
321.285832
 20
70.069919
 42
0.090680
  0
VERTEX
  8
0
 10
321.660540
 20
70.272211
 42
0.100779
  0
VERTEX
  8
0
 10
321.911047
 20
70.573258
 42
0.123914
  0
VERTEX
  8
0
 10
322.000000
 20
70.926676
 42
-0.254754
  0
VERTEX
  8
0
 10
322.398852
 20
71.658689
 42
-0.067479
  0
VERTEX
  8
0
 10
323.646839
 20
72.243551
 42
-0.045415
  0
VERTEX
  8
0
 10
325.604645
 20
72.666433
 42
-0.019954
  0
VERTEX
  8
0
 10
328.250000
 20
72.883999
 42
-0.054946
  0
VERTEX
  8
0
 10
329.895523
 20
72.772551
 42
-0.243706
  0
VERTEX
  8
0
 10
330.640250
 20
72.199916
 42
-0.102960
  0
VERTEX
  8
0
 10
330.947740
 20
70.898434
 42
-0.006702
  0
SEQEND
  0
POLYLINE
  8
0
 66
1
 70
1
  0
VERTEX
  8
0
 10
346.348871
 20
71.501369
 42
-0.035742
  0
VERTEX
  8
0
 10
349.263250
 20
69.850544
 42
-0.028828
  0
VERTEX
  8
0
 10
352.140831
 20
67.687993
 42
-0.024798
  0
VERTEX
  8
0
 10
354.457906
 20
65.522052
 42
-0.194787
  0
VERTEX
  8
0
 10
355.000000
 20
64.183341
 42
0.108799
  0
VERTEX
  8
0
 10
355.104318
 20
63.709608
 42
0.054384
  0
VERTEX
  8
0
 10
355.422525
 20
63.181337
 42
0.050278
  0
VERTEX
  8
0
 10
355.888198
 20
62.682754
 42
0.052257
  0
VERTEX
  8
0
 10
356.438383
 20
62.294421
 42
-0.124781
  0
VERTEX
  8
0
 10
357.072951
 20
61.693124
 42
-0.026780
  0
VERTEX
  8
0
 10
357.819631
 20
60.359765
 42
-0.026404
  0
VERTEX
  8
0
 10
358.538824
 20
58.678180
 42
-0.022505
  0
VERTEX
  8
0
 10
359.120647
 20
56.838728
 42
-0.024432
  0
VERTEX
  8
0
 10
359.687575
 20
54.210956
 42
-0.043329
  0
VERTEX
  8
0
 10
359.857972
 20
52.003214
 42
-0.039543
  0
VERTEX
  8
0
 10
359.650342
 20
49.666434
 42
-0.016947
  0
VERTEX
  8
0
 10
359.022550
 20
46.593997
 42
-0.018514
  0
VERTEX
  8
0
 10
358.387515
 20
44.321307
 42
-0.034416
  0
VERTEX
  8
0
 10
357.681038
 20
42.543750
 42
-0.040938
  0
VERTEX
  8
0
 10
356.970512
 20
41.328114
 42
-0.244724
  0
VERTEX
  8
0
 10
356.340285
 20
41.000000
 42
0.147472
  0
VERTEX
  8
0
 10
355.829165
 20
40.845897
 42
0.099003
  0
VERTEX
  8
0
 10
355.393709
 20
40.412500
 42
0.082674
  0
VERTEX
  8
0
 10
355.100139
 20
39.764592
 42
0.065207
  0
VERTEX
  8
0
 10
355.000000
 20
39.000000
 42
-0.073955
  0
VERTEX
  8
0
 10
354.786318
 20
37.563235
 42
-0.349137
  0
VERTEX
  8
0
 10
354.146596
 20
37.122095
 42
-0.145058
  0
VERTEX
  8
0
 10
353.009017
 20
37.545380
 42
-0.016498
  0
VERTEX
  8
0
 10
350.848152
 20
39.283231
 42
-0.020540
  0
VERTEX
  8
0
 10
349.342776
 20
40.689543
 42
-0.129207
  0
VERTEX
  8
0
 10
348.823735
 20
41.593251
 42
-0.158366
  0
VERTEX
  8
0
 10
348.871023
 20
42.542597
 42
-0.035452
  0
VERTEX
  8
0
 10
349.562716
 20
44.032010
 42
0.015577
  0
VERTEX
  8
0
 10
350.694398
 20
46.235313
 42
0.147101
  0
VERTEX
  8
0
 10
350.852682
 20
47.273948
 42
0.303044
  0
VERTEX
  8
0
 10
350.358081
 20
47.827328
 42
0.063317
  0
VERTEX
  8
0
 10
349.000000
 20
48.000000
 42
0.163661
  0
VERTEX
  8
0
 10
347.919245
 20
47.636508
 42
0.173643
  0
VERTEX
  8
0
 10
347.309642
 20
46.702079
 42
0.053613
  0
VERTEX
  8
0
 10
347.050423
 20
44.673053
 42
0.004986
  0
VERTEX
  8
0
 10
347.000000
 20
39.616631
 42
-0.014285
  0
VERTEX
  8
0
 10
346.832288
 20
33.747432
 42
-0.139785
  0
VERTEX
  8
0
 10
346.025501
 20
31.429174
 42
-0.204606
  0
VERTEX
  8
0
 10
344.247202
 20
30.327896
 42
-0.036208
  0
VERTEX
  8
0
 10
340.250000
 20
30.013655
 42
0.000000
  0
VERTEX
  8
0
 10
338.000000
 20
30.000000
 42
0.000000
  0
VERTEX
  8
0
 10
338.000000
 20
51.500000
 42
0.000000
  0
VERTEX
  8
0
 10
338.000000
 20
73.000000
 42
0.000000
  0
VERTEX
  8
0
 10
340.598871
 20
73.000000
 42
-0.043197
  0
VERTEX
  8
0
 10
341.818919
 20
72.894399
 42
-0.020573
  0
VERTEX
  8
0
 10
343.359968
 20
72.559777
 42
-0.020218
  0
VERTEX
  8
0
 10
344.952189
 20
72.075276
 42
-0.027033
  0
SEQEND
  0
POLYLINE
  8
0
 66
1
 70
1
  0
VERTEX
  8
0
 10
369.464681
 20
55.322400
 42
0.111519
  0
VERTEX
  8
0
 10
367.763182
 20
54.565304
 42
0.077923
  0
VERTEX
  8
0
 10
366.289299
 20
53.058913
 42
0.101386
  0
VERTEX
  8
0
 10
365.594836
 20
51.490691
 42
0.318129
  0
VERTEX
  8
0
 10
366.020479
 20
50.487343
 42
0.143200
  0
VERTEX
  8
0
 10
366.392218
 20
50.384819
 42
0.191452
  0
VERTEX
  8
0
 10
366.712266
 20
50.517757
 42
0.136133
  0
VERTEX
  8
0
 10
366.928410
 20
50.888196
 42
0.064485
  0
VERTEX
  8
0
 10
367.000000
 20
51.440983
 42
-0.133471
  0
VERTEX
  8
0
 10
367.181415
 20
52.108481
 42
-0.128452
  0
VERTEX
  8
0
 10
367.677620
 20
52.603842
 42
-0.091280
  0
VERTEX
  8
0
 10
368.508402
 20
52.904267
 42
-0.041256
  0
VERTEX
  8
0
 10
369.666667
 20
53.000000
 42
-0.023294
  0
VERTEX
  8
0
 10
370.646202
 20
52.954341
 42
-0.055908
  0
VERTEX
  8
0
 10
371.356715
 20
52.806715
 42
-0.135434
  0
VERTEX
  8
0
 10
371.683964
 20
52.589594
 42
-0.393966
  0
VERTEX
  8
0
 10
371.675343
 20
52.342009
 42
0.174420
  0
VERTEX
  8
0
 10
371.508758
 20
51.988192
 42
0.081568
  0
VERTEX
  8
0
 10
371.543698
 20
51.475989
 42
0.065749
  0
VERTEX
  8
0
 10
371.766034
 20
50.889208
 42
0.049847
  0
VERTEX
  8
0
 10
372.151177
 20
50.317843
 42
-0.074842
  0
VERTEX
  8
0
 10
372.917906
 20
49.048318
 42
-0.415850
  0
VERTEX
  8
0
 10
372.642141
 20
48.385522
 42
-0.243022
  0
VERTEX
  8
0
 10
371.653911
 20
48.473181
 42
-0.055088
  0
VERTEX
  8
0
 10
370.297619
 20
49.559545
 42
0.010398
  0
VERTEX
  8
0
 10
369.190927
 20
50.621152
 42
0.173650
  0
VERTEX
  8
0
 10
368.729417
 20
50.816243
 42
0.338017
  0
VERTEX
  8
0
 10
368.420225
 20
50.606592
 42
0.033198
  0
VERTEX
  8
0
 10
368.176676
 20
49.678593
 42
-0.149944
  0
VERTEX
  8
0
 10
367.491219
 20
48.387145
 42
-0.265085
  0
VERTEX
  8
0
 10
366.361678
 20
48.078280
 42
-0.181304
  0
VERTEX
  8
0
 10
365.153781
 20
48.922580
 42
-0.089270
  0
VERTEX
  8
0
 10
364.371593
 20
50.655591
 42
-0.120029
  0
VERTEX
  8
0
 10
364.357052
 20
52.735746
 42
-0.135821
  0
VERTEX
  8
0
 10
365.315174
 20
54.481625
 42
-0.124648
  0
VERTEX
  8
0
 10
367.114650
 20
55.587058
 42
-0.092488
  0
VERTEX
  8
0
 10
369.441130
 20
55.863818
 42
-0.000991
  0
VERTEX
  8
0
 10
370.911379
 20
55.763644
 42
-0.381353
  0
VERTEX
  8
0
 10
370.979738
 20
55.693446
 42
-0.368955
  0
VERTEX
  8
0
 10
370.918222
 20
55.614746
 42
-0.000973
  0
SEQEND
  0
POLYLINE
  8
0
 66
1
 70
1
  0
VERTEX
  8
0
 10
226.000000
 20
37.500000
 42
-0.011522
  0
VERTEX
  8
0
 10
225.931377
 20
34.522473
 42
-0.021620
  0
VERTEX
  8
0
 10
225.716667
 20
32.125000
 42
-0.018508
  0
VERTEX
  8
0
 10
225.409838
 20
30.332853
 42
-0.354925
  0
VERTEX
  8
0
 10
225.000000
 20
30.000000
 42
-0.332856
  0
VERTEX
  8
0
 10
224.608885
 20
30.292812
 42
-0.026701
  0
VERTEX
  8
0
 10
224.293750
 20
31.625960
 42
-0.027697
  0
VERTEX
  8
0
 10
224.072143
 20
33.413349
 42
-0.016995
  0
VERTEX
  8
0
 10
224.000000
 20
35.535184
 42
0.005644
  0
VERTEX
  8
0
 10
223.960240
 20
39.057156
 42
0.104983
  0
VERTEX
  8
0
 10
223.706215
 20
40.133449
 42
0.355078
  0
VERTEX
  8
0
 10
223.122822
 20
40.413417
 42
0.064200
  0
VERTEX
  8
0
 10
221.914354
 20
39.954163
 42
-0.037630
  0
VERTEX
  8
0
 10
221.067173
 20
39.579718
 42
-0.049320
  0
VERTEX
  8
0
 10
220.246212
 20
39.376735
 42
-0.058520
  0
VERTEX
  8
0
 10
219.565885
 20
39.358415
 42
-0.185627
  0
VERTEX
  8
0
 10
219.164354
 20
39.555884
 42
-0.163880
  0
VERTEX
  8
0
 10
219.024233
 20
39.868152
 42
-0.158661
  0
VERTEX
  8
0
 10
219.099060
 20
40.206297
 42
-0.112733
  0
VERTEX
  8
0
 10
219.397573
 20
40.522268
 42
-0.062125
  0
VERTEX
  8
0
 10
219.875000
 20
40.761905
 42
0.055448
  0
VERTEX
  8
0
 10
220.515721
 20
41.072900
 42
0.021791
  0
VERTEX
  8
0
 10
221.323437
 20
41.632924
 42
0.021250
  0
VERTEX
  8
0
 10
222.151948
 20
42.319951
 42
0.024839
  0
VERTEX
  8
0
 10
222.875000
 20
43.041667
 42
-0.018937
  0
VERTEX
  8
0
 10
223.552143
 20
43.733696
 42
-0.022532
  0
VERTEX
  8
0
 10
224.242969
 20
44.331510
 42
-0.022078
  0
VERTEX
  8
0
 10
224.861346
 20
44.776853
 42
-0.117875
  0
VERTEX
  8
0
 10
225.250000
 20
44.916667
 42
-0.405741
  0
VERTEX
  8
0
 10
225.548659
 20
44.684764
 42
-0.009722
  0
VERTEX
  8
0
 10
225.779687
 20
42.772396
 42
-0.015810
  0
VERTEX
  8
0
 10
225.946116
 20
40.369934
 42
-0.009387
  0
SEQEND
  0
POLYLINE
  8
0
 66
1
 70
1
  0
VERTEX
  8
0
 10
241.303788
 20
44.362878
 42
-0.247663
  0
VERTEX
  8
0
 10
241.431518
 20
43.949732
 42
-0.043814
  0
VERTEX
  8
0
 10
241.205306
 20
43.142685
 42
-0.038521
  0
VERTEX
  8
0
 10
240.742679
 20
42.154520
 42
-0.025984
  0
VERTEX
  8
0
 10
240.073848
 20
41.103711
 42
0.035123
  0
VERTEX
  8
0
 10
239.276534
 20
39.799043
 42
0.016286
  0
VERTEX
  8
0
 10
238.419792
 20
38.006146
 42
0.016042
  0
VERTEX
  8
0
 10
237.638520
 20
36.056451
 42
0.021505
  0
VERTEX
  8
0
 10
237.064849
 20
34.240832
 42
-0.019820
  0
VERTEX
  8
0
 10
236.557488
 20
32.616038
 42
-0.029541
  0
VERTEX
  8
0
 10
235.975928
 20
31.245744
 42
-0.029250
  0
VERTEX
  8
0
 10
235.400307
 20
30.237867
 42
-0.253584
  0
VERTEX
  8
0
 10
234.961456
 20
30.000000
 42
-0.374559
  0
VERTEX
  8
0
 10
234.099664
 20
30.750936
 42
-0.063961
  0
VERTEX
  8
0
 10
234.077221
 20
33.110179
 42
-0.051832
  0
VERTEX
  8
0
 10
234.746903
 20
36.079709
 42
-0.055593
  0
VERTEX
  8
0
 10
236.003738
 20
38.774170
 42
0.007300
  0
VERTEX
  8
0
 10
237.671212
 20
41.601127
 42
0.190123
  0
VERTEX
  8
0
 10
237.794597
 20
42.460761
 42
0.326384
  0
VERTEX
  8
0
 10
237.263275
 20
42.914340
 42
0.018917
  0
VERTEX
  8
0
 10
235.000000
 20
43.000000
 42
-0.031626
  0
VERTEX
  8
0
 10
233.850749
 20
43.072766
 42
-0.048861
  0
VERTEX
  8
0
 10
232.881250
 20
43.293750
 42
-0.062710
  0
VERTEX
  8
0
 10
232.209557
 20
43.615738
 42
-0.254951
  0
VERTEX
  8
0
 10
232.000000
 20
44.000000
 42
-0.383305
  0
VERTEX
  8
0
 10
232.643200
 20
44.715747
 42
-0.016923
  0
VERTEX
  8
0
 10
236.260428
 20
44.979640
 42
-0.019863
  0
VERTEX
  8
0
 10
239.902166
 20
44.976954
 42
-0.188418
  0
SEQEND
  0
POLYLINE
  8
0
 66
1
 70
1
  0
VERTEX
  8
0
 10
250.886911
 20
44.091055
 42
-0.113387
  0
VERTEX
  8
0
 10
251.425325
 20
43.547282
 42
-0.077099
  0
VERTEX
  8
0
 10
251.766374
 20
42.742290
 42
-0.064539
  0
VERTEX
  8
0
 10
251.886182
 20
41.731229
 42
-0.044512
  0
VERTEX
  8
0
 10
251.771020
 20
40.582500
 42
0.033182
  0
VERTEX
  8
0
 10
251.642173
 20
39.536335
 42
0.042629
  0
VERTEX
  8
0
 10
251.670272
 20
38.567697
 42
0.048483
  0
VERTEX
  8
0
 10
251.834567
 20
37.801003
 42
0.179190
  0
VERTEX
  8
0
 10
252.134109
 20
37.417116
 42
-0.210815
  0
VERTEX
  8
0
 10
253.026681
 20
36.117128
 42
-0.107631
  0
VERTEX
  8
0
 10
252.969538
 20
34.098999
 42
-0.095293
  0
VERTEX
  8
0
 10
252.037376
 20
32.081163
 42
-0.130865
  0
VERTEX
  8
0
 10
250.500000
 20
30.818046
 42
-0.105748
  0
VERTEX
  8
0
 10
248.158324
 20
30.302229
 42
-0.086966
  0
VERTEX
  8
0
 10
245.629346
 20
30.729559
 42
-0.101092
  0
VERTEX
  8
0
 10
243.694491
 20
31.895656
 42
-0.209723
  0
VERTEX
  8
0
 10
243.000000
 20
33.478561
 42
-0.114651
  0
VERTEX
  8
0
 10
243.247822
 20
34.545124
 42
-0.283528
  0
VERTEX
  8
0
 10
243.899985
 20
34.955483
 42
-0.221039
  0
VERTEX
  8
0
 10
244.713256
 20
34.586424
 42
-0.086036
  0
VERTEX
  8
0
 10
245.361626
 20
33.500000
 42
0.104363
  0
VERTEX
  8
0
 10
245.732868
 20
32.926359
 42
0.066680
  0
VERTEX
  8
0
 10
246.364866
 20
32.440625
 42
0.062710
  0
VERTEX
  8
0
 10
247.149006
 20
32.111994
 42
0.068006
  0
VERTEX
  8
0
 10
247.968615
 20
32.000000
 42
0.073159
  0
VERTEX
  8
0
 10
248.924318
 20
32.140590
 42
0.150197
  0
VERTEX
  8
0
 10
249.546862
 20
32.557672
 42
0.126393
  0
VERTEX
  8
0
 10
249.892999
 20
33.310623
 42
0.044891
  0
VERTEX
  8
0
 10
250.000000
 20
34.500000
 42
0.044917
  0
VERTEX
  8
0
 10
249.893532
 20
35.682766
 42
0.124434
  0
VERTEX
  8
0
 10
249.550000
 20
36.437500
 42
0.149477
  0
VERTEX
  8
0
 10
248.935258
 20
36.857434
 42
0.075780
  0
VERTEX
  8
0
 10
248.000000
 20
37.000000
 42
-0.042236
  0
VERTEX
  8
0
 10
247.234305
 20
37.064796
 42
-0.061847
  0
VERTEX
  8
0
 10
246.587500
 20
37.259490
 42
-0.081235
  0
VERTEX
  8
0
 10
246.148959
 20
37.545576
 42
-0.210700
  0
VERTEX
  8
0
 10
246.000000
 20
37.883369
 42
-0.181596
  0
VERTEX
  8
0
 10
246.141258
 20
38.259476
 42
-0.059916
  0
VERTEX
  8
0
 10
246.587500
 20
38.660882
 42
-0.050447
  0
VERTEX
  8
0
 10
247.234516
 20
39.024544
 42
-0.038887
  0
VERTEX
  8
0
 10
248.000000
 20
39.289749
 42
0.049562
  0
VERTEX
  8
0
 10
248.765070
 20
39.573209
 42
0.058904
  0
VERTEX
  8
0
 10
249.412500
 20
39.989596
 42
0.068988
  0
VERTEX
  8
0
 10
249.853339
 20
40.468698
 42
0.152688
  0
VERTEX
  8
0
 10
250.000000
 20
40.937765
 42
0.205371
  0
VERTEX
  8
0
 10
249.545173
 20
41.998389
 42
0.135061
  0
VERTEX
  8
0
 10
248.357570
 20
42.635017
 42
0.111860
  0
VERTEX
  8
0
 10
246.818018
 20
42.636228
 42
0.118225
  0
VERTEX
  8
0
 10
245.463099
 20
41.969375
 42
-0.049587
  0
VERTEX
  8
0
 10
244.831259
 20
41.542993
 42
-0.065524
  0
VERTEX
  8
0
 10
244.182899
 20
41.296224
 42
-0.081356
  0
VERTEX
  8
0
 10
243.617383
 20
41.256311
 42
-0.175134
  0
VERTEX
  8
0
 10
243.227406
 20
41.439260
 42
-0.379821
  0
VERTEX
  8
0
 10
243.175880
 20
42.305436
 42
-0.064930
  0
VERTEX
  8
0
 10
244.458762
 20
43.560794
 42
-0.055959
  0
VERTEX
  8
0
 10
246.286873
 20
44.639480
 42
-0.108194
  0
VERTEX
  8
0
 10
247.941130
 20
44.984687
 42
-0.044609
  0
VERTEX
  8
0
 10
248.638798
 20
44.915405
 42
-0.026606
  0
VERTEX
  8
0
 10
249.449487
 20
44.715866
 42
-0.026493
  0
VERTEX
  8
0
 10
250.242329
 20
44.428692
 42
-0.041037
  0
SEQEND
  0
POLYLINE
  8
0
 66
1
 70
1
  0
VERTEX
  8
0
 10
263.171259
 20
43.345012
 42
-0.143586
  0
VERTEX
  8
0
 10
264.516319
 20
41.151214
 42
-0.062506
  0
VERTEX
  8
0
 10
264.997609
 20
37.734357
 42
-0.061970
  0
VERTEX
  8
0
 10
264.617233
 20
34.248651
 42
-0.126440
  0
VERTEX
  8
0
 10
263.345012
 20
31.828741
 42
-0.153015
  0
VERTEX
  8
0
 10
260.618778
 20
30.225685
 42
-0.205419
  0
VERTEX
  8
0
 10
257.829758
 20
30.725481
 42
-0.157277
  0
VERTEX
  8
0
 10
255.734981
 20
33.335719
 42
-0.091323
  0
VERTEX
  8
0
 10
255.000000
 20
37.326247
 42
-0.079658
  0
VERTEX
  8
0
 10
255.662010
 20
41.455216
 42
-0.155736
  0
VERTEX
  8
0
 10
257.597083
 20
44.126292
 42
-0.205948
  0
VERTEX
  8
0
 10
260.300068
 20
44.755298
 42
-0.140408
  0
SEQEND
  0
POLYLINE
  8
0
 66
1
 70
1
  0
VERTEX
  8
0
 10
125.024244
 20
182.394929
 42
0.035214
  0
VERTEX
  8
0
 10
119.595405
 20
180.519722
 42
0.037681
  0
VERTEX
  8
0
 10
114.610709
 20
177.935325
 42
0.035298
  0
VERTEX
  8
0
 10
109.803667
 20
174.472927
 42
0.024856
  0
VERTEX
  8
0
 10
104.902141
 20
169.957016
 42
0.044635
  0
VERTEX
  8
0
 10
98.946829
 20
162.703199
 42
0.068202
  0
VERTEX
  8
0
 10
95.323456
 20
155.426605
 42
0.085317
  0
VERTEX
  8
0
 10
94.279560
 20
148.771583
 42
0.137396
  0
VERTEX
  8
0
 10
95.897452
 20
143.304334
 42
0.105536
  0
VERTEX
  8
0
 10
100.286237
 20
138.788123
 42
0.112051
  0
VERTEX
  8
0
 10
106.045083
 20
136.579336
 42
0.092960
  0
VERTEX
  8
0
 10
113.071122
 20
136.876816
 42
0.052920
  0
VERTEX
  8
0
 10
121.132440
 20
139.669069
 42
-0.010460
  0
VERTEX
  8
0
 10
124.999017
 20
141.387739
 42
-0.050167
  0
VERTEX
  8
0
 10
127.302521
 20
142.092973
 42
-0.073778
  0
VERTEX
  8
0
 10
129.259405
 20
142.190031
 42
-0.040164
  0
VERTEX
  8
0
 10
131.632440
 20
141.763072
 42
0.156144
  0
VERTEX
  8
0
 10
138.504779
 20
142.117202
 42
0.138133
  0
VERTEX
  8
0
 10
144.290665
 20
146.387385
 42
0.138032
  0
VERTEX
  8
0
 10
147.000238
 20
153.052250
 42
0.155854
  0
VERTEX
  8
0
 10
145.649315
 20
159.806179
 42
-0.060685
  0
VERTEX
  8
0
 10
145.098389
 20
161.164128
 42
-0.055462
  0
VERTEX
  8
0
 10
144.867599
 20
162.657000
 42
-0.042821
  0
VERTEX
  8
0
 10
144.946109
 20
164.480810
 42
-0.018362
  0
VERTEX
  8
0
 10
145.347682
 20
166.887526
 42
0.020979
  0
VERTEX
  8
0
 10
145.780327
 20
169.566743
 42
0.056573
  0
VERTEX
  8
0
 10
145.790189
 20
171.492039
 42
0.060868
  0
VERTEX
  8
0
 10
145.370490
 20
173.288669
 42
0.027416
  0
VERTEX
  8
0
 10
144.412932
 20
175.516813
 42
0.083921
  0
VERTEX
  8
0
 10
141.191755
 20
179.951857
 42
0.109000
  0
VERTEX
  8
0
 10
136.942696
 20
182.604230
 42
0.096677
  0
VERTEX
  8
0
 10
131.566885
 20
183.406503
 42
0.054447
  0
SEQEND
  0
POLYLINE
  8
0
 66
1
 70
1
  0
VERTEX
  8
0
 10
136.315741
 20
177.836657
 42
-0.054029
  0
VERTEX
  8
0
 10
138.457922
 20
176.379461
 42
-0.085027
  0
VERTEX
  8
0
 10
139.880713
 20
174.675994
 42
-0.082196
  0
VERTEX
  8
0
 10
140.685319
 20
172.552486
 42
-0.047412
  0
VERTEX
  8
0
 10
140.968197
 20
169.826798
 42
0.000000
  0
VERTEX
  8
0
 10
141.000000
 20
166.153597
 42
0.000000
  0
VERTEX
  8
0
 10
135.686922
 20
166.277993
 42
0.110737
  0
VERTEX
  8
0
 10
128.863743
 20
164.914987
 42
0.142160
  0
VERTEX
  8
0
 10
123.991311
 20
160.809587
 42
0.141729
  0
VERTEX
  8
0
 10
122.064303
 20
154.723037
 42
0.109818
  0
VERTEX
  8
0
 10
123.408976
 20
147.868910
 42
-0.382998
  0
VERTEX
  8
0
 10
122.634261
 20
145.523642
 42
-0.043298
  0
VERTEX
  8
0
 10
117.109013
 20
142.964997
 42
-0.043669
  0
VERTEX
  8
0
 10
110.539731
 20
141.218439
 42
-0.105003
  0
VERTEX
  8
0
 10
105.534250
 20
141.402048
 42
-0.180152
  0
VERTEX
  8
0
 10
100.807945
 20
144.652059
 42
-0.170964
  0
VERTEX
  8
0
 10
99.229553
 20
150.283348
 42
-0.112095
  0
VERTEX
  8
0
 10
101.425298
 20
157.678245
 42
-0.058271
  0
VERTEX
  8
0
 10
107.112349
 20
165.506058
 42
-0.018362
  0
VERTEX
  8
0
 10
110.980698
 20
169.405220
 42
-0.034501
  0
VERTEX
  8
0
 10
114.419489
 20
172.206985
 42
-0.035469
  0
VERTEX
  8
0
 10
118.145506
 20
174.459707
 42
-0.020657
  0
VERTEX
  8
0
 10
122.892457
 20
176.645797
 42
-0.024666
  0
VERTEX
  8
0
 10
127.213681
 20
178.178954
 42
-0.050828
  0
VERTEX
  8
0
 10
130.732343
 20
178.855853
 42
-0.064924
  0
VERTEX
  8
0
 10
133.697971
 20
178.733654
 42
-0.079804
  0
SEQEND
  0
POLYLINE
  8
0
 66
1
 70
1
  0
VERTEX
  8
0
 10
69.950415
 20
106.440253
 42
0.162084
  0
VERTEX
  8
0
 10
69.199462
 20
104.511864
 42
0.105223
  0
VERTEX
  8
0
 10
69.583260
 20
102.128992
 42
0.105109
  0
VERTEX
  8
0
 10
70.904686
 20
100.106846
 42
0.161417
  0
VERTEX
  8
0
 10
72.760451
 20
99.181717
 42
0.072670
  0
VERTEX
  8
0
 10
73.833831
 20
99.184613
 42
0.105265
  0
VERTEX
  8
0
 10
74.719042
 20
99.515325
 42
0.094650
  0
VERTEX
  8
0
 10
75.456814
 20
100.210997
 42
0.049665
  0
VERTEX
  8
0
 10
76.093208
 20
101.305223
 42
0.146121
  0
VERTEX
  8
0
 10
76.539058
 20
104.531154
 42
0.182401
  0
VERTEX
  8
0
 10
75.063607
 20
107.146245
 42
0.216437
  0
VERTEX
  8
0
 10
72.458744
 20
107.867102
 42
0.182422
  0
SEQEND
  0
POLYLINE
  8
0
 66
1
 70
1
  0
VERTEX
  8
0
 10
160.000000
 20
107.500000
 42
0.000000
  0
VERTEX
  8
0
 10
160.000000
 20
99.000000
 42
0.000000
  0
VERTEX
  8
0
 10
163.428571
 20
99.000000
 42
0.112894
  0
VERTEX
  8
0
 10
167.058576
 20
99.830190
 42
0.142294
  0
VERTEX
  8
0
 10
169.610404
 20
102.124740
 42
0.119413
  0
VERTEX
  8
0
 10
170.814832
 20
105.783167
 42
0.066545
  0
VERTEX
  8
0
 10
170.567025
 20
110.494420
 42
0.072327
  0
VERTEX
  8
0
 10
169.710344
 20
112.996727
 42
0.116369
  0
VERTEX
  8
0
 10
168.254772
 20
114.704124
 42
0.105907
  0
VERTEX
  8
0
 10
166.080561
 20
115.680607
 42
0.052823
  0
VERTEX
  8
0
 10
163.065741
 20
116.000000
 42
0.000000
  0
VERTEX
  8
0
 10
160.000000
 20
116.000000
 42
0.000000
  0
SEQEND
  0
POLYLINE
  8
0
 66
1
 70
1
  0
VERTEX
  8
0
 10
226.399704
 20
115.234687
 42
0.125114
  0
VERTEX
  8
0
 10
224.435679
 20
113.053831
 42
0.077299
  0
VERTEX
  8
0
 10
223.311686
 20
109.771349
 42
0.071839
  0
VERTEX
  8
0
 10
223.191666
 20
106.043637
 42
0.079235
  0
VERTEX
  8
0
 10
224.151757
 20
102.566275
 42
0.141821
  0
VERTEX
  8
0
 10
226.323804
 20
100.035622
 42
0.144926
  0
VERTEX
  8
0
 10
229.493066
 20
99.083331
 42
0.145529
  0
VERTEX
  8
0
 10
232.660033
 20
100.011120
 42
0.143283
  0
VERTEX
  8
0
 10
234.828561
 20
102.523076
 42
0.093205
  0
VERTEX
  8
0
 10
235.967920
 20
107.145791
 42
0.108695
  0
VERTEX
  8
0
 10
235.245224
 20
111.602506
 42
0.130645
  0
VERTEX
  8
0
 10
232.893018
 20
114.780847
 42
0.170077
  0
VERTEX
  8
0
 10
229.500000
 20
115.969374
 42
0.031851
  0
VERTEX
  8
0
 10
228.653564
 20
115.915400
 42
0.026336
  0
VERTEX
  8
0
 10
227.764288
 20
115.753560
 42
0.027127
  0
VERTEX
  8
0
 10
226.962421
 20
115.516959
 42
0.061971
  0
SEQEND
  0
POLYLINE
  8
0
 66
1
 70
1
  0
VERTEX
  8
0
 10
363.000000
 20
107.500000
 42
0.000000
  0
VERTEX
  8
0
 10
363.000000
 20
99.000000
 42
0.000000
  0
VERTEX
  8
0
 10
366.428571
 20
99.000000
 42
0.112894
  0
VERTEX
  8
0
 10
370.058576
 20
99.830190
 42
0.142294
  0
VERTEX
  8
0
 10
372.610404
 20
102.124740
 42
0.119413
  0
VERTEX
  8
0
 10
373.814832
 20
105.783167
 42
0.066545
  0
VERTEX
  8
0
 10
373.567025
 20
110.494420
 42
0.072327
  0
VERTEX
  8
0
 10
372.710344
 20
112.996727
 42
0.116369
  0
VERTEX
  8
0
 10
371.254772
 20
114.704124
 42
0.105907
  0
VERTEX
  8
0
 10
369.080561
 20
115.680607
 42
0.052823
  0
VERTEX
  8
0
 10
366.065741
 20
116.000000
 42
0.000000
  0
VERTEX
  8
0
 10
363.000000
 20
116.000000
 42
0.000000
  0
SEQEND
  0
POLYLINE
  8
0
 66
1
 70
1
  0
VERTEX
  8
0
 10
73.000000
 20
75.000000
 42
0.012848
  0
VERTEX
  8
0
 10
73.067344
 20
72.379571
 42
0.161097
  0
VERTEX
  8
0
 10
73.421795
 20
71.467983
 42
0.221728
  0
VERTEX
  8
0
 10
74.200502
 20
71.097464
 42
0.026730
  0
VERTEX
  8
0
 10
76.149151
 20
71.186642
 42
0.127823
  0
VERTEX
  8
0
 10
79.595749
 20
72.458222
 42
0.245534
  0
VERTEX
  8
0
 10
80.924013
 20
75.000000
 42
0.245534
  0
VERTEX
  8
0
 10
79.595749
 20
77.541778
 42
0.127823
  0
VERTEX
  8
0
 10
76.149151
 20
78.813358
 42
0.026730
  0
VERTEX
  8
0
 10
74.200502
 20
78.902536
 42
0.221728
  0
VERTEX
  8
0
 10
73.421795
 20
78.532017
 42
0.161097
  0
VERTEX
  8
0
 10
73.067344
 20
77.620429
 42
0.012848
  0
SEQEND
  0
POLYLINE
  8
0
 66
1
 70
1
  0
VERTEX
  8
0
 10
119.200000
 20
77.800000
 42
0.177486
  0
VERTEX
  8
0
 10
118.120258
 20
75.470834
 42
0.027151
  0
VERTEX
  8
0
 10
117.972231
 20
70.275103
 42
0.026750
  0
VERTEX
  8
0
 10
118.383483
 20
65.099576
 42
0.188509
  0
VERTEX
  8
0
 10
119.583823
 20
62.930433
 42
0.161254
  0
VERTEX
  8
0
 10
121.563012
 20
62.156012
 42
0.251179
  0
VERTEX
  8
0
 10
123.182831
 20
62.916540
 42
0.116420
  0
VERTEX
  8
0
 10
124.300476
 20
65.503134
 42
0.032005
  0
VERTEX
  8
0
 10
124.799984
 20
69.941286
 42
0.039468
  0
VERTEX
  8
0
 10
124.643658
 20
75.014003
 42
0.128048
  0
VERTEX
  8
0
 10
123.453435
 20
78.134278
 42
0.279985
  0
VERTEX
  8
0
 10
121.527563
 20
78.961463
 42
0.162687
  0
SEQEND
  0
POLYLINE
  8
0
 66
1
 70
1
  0
VERTEX
  8
0
 10
178.618689
 20
71.566722
 42
0.007404
  0
VERTEX
  8
0
 10
177.615425
 20
70.210183
 42
0.010585
  0
VERTEX
  8
0
 10
176.769240
 20
68.975495
 42
0.006784
  0
VERTEX
  8
0
 10
176.101479
 20
67.924663
 42
0.139015
  0
VERTEX
  8
0
 10
176.000000
 20
67.566722
 42
0.328414
  0
VERTEX
  8
0
 10
176.162950
 20
67.345393
 42
0.028714
  0
VERTEX
  8
0
 10
176.881250
 20
67.166475
 42
0.028910
  0
VERTEX
  8
0
 10
177.850023
 20
67.040899
 42
0.017777
  0
VERTEX
  8
0
 10
179.000000
 20
67.000000
 42
0.033956
  0
VERTEX
  8
0
 10
180.775737
 20
67.120733
 42
0.200505
  0
VERTEX
  8
0
 10
181.562500
 20
67.583333
 42
0.146160
  0
VERTEX
  8
0
 10
181.923201
 20
68.561635
 42
0.015744
  0
VERTEX
  8
0
 10
182.000000
 20
71.000000
 42
0.008942
  0
VERTEX
  8
0
 10
181.972569
 20
72.533673
 42
0.014819
  0
VERTEX
  8
0
 10
181.887990
 20
73.825000
 42
0.008500
  0
VERTEX
  8
0
 10
181.770828
 20
74.866327
 42
0.376904
  0
VERTEX
  8
0
 10
181.618689
 20
75.000000
 42
0.211295
  0
VERTEX
  8
0
 10
181.388217
 20
74.898053
 42
0.004930
  0
VERTEX
  8
0
 10
180.580148
 20
73.991475
 42
0.010077
  0
VERTEX
  8
0
 10
179.649901
 20
72.882545
 42
0.006560
  0
SEQEND
  0
POLYLINE
  8
0
 66
1
 70
1
  0
VERTEX
  8
0
 10
197.200000
 20
77.800000
 42
0.077650
  0
VERTEX
  8
0
 10
196.297954
 20
76.563885
 42
0.142509
  0
VERTEX
  8
0
 10
196.061643
 20
75.350265
 42
0.165972
  0
VERTEX
  8
0
 10
196.519171
 20
74.325037
 42
0.114419
  0
VERTEX
  8
0
 10
197.581787
 20
73.606989
 42
0.041611
  0
VERTEX
  8
0
 10
199.343264
 20
73.094297
 42
0.096487
  0
VERTEX
  8
0
 10
200.713930
 20
73.083770
 42
0.133915
  0
VERTEX
  8
0
 10
201.708322
 20
73.565277
 42
0.122405
  0
VERTEX
  8
0
 10
202.361626
 20
74.500000
 42
0.147227
  0
VERTEX
  8
0
 10
202.534453
 20
76.829513
 42
0.198460
  0
VERTEX
  8
0
 10
201.336127
 20
78.543592
 42
0.196724
  0
VERTEX
  8
0
 10
199.267446
 20
78.920784
 42
0.145327
  0
SEQEND
  0
POLYLINE
  8
0
 66
1
 70
1
  0
VERTEX
  8
0
 10
196.415233
 20
68.639697
 42
0.052408
  0
VERTEX
  8
0
 10
196.217946
 20
67.903084
 42
0.023266
  0
VERTEX
  8
0
 10
196.106940
 20
66.902086
 42
0.022724
  0
VERTEX
  8
0
 10
196.086969
 20
65.821564
 42
0.028454
  0
VERTEX
  8
0
 10
196.170919
 20
64.822726
 42
0.062177
  0
VERTEX
  8
0
 10
196.484702
 20
63.666193
 42
0.144105
  0
VERTEX
  8
0
 10
197.041588
 20
62.970984
 42
0.117984
  0
VERTEX
  8
0
 10
197.968305
 20
62.606949
 42
0.034869
  0
VERTEX
  8
0
 10
199.500000
 20
62.500000
 42
0.032088
  0
VERTEX
  8
0
 10
201.239808
 20
62.611769
 42
0.185552
  0
VERTEX
  8
0
 10
202.035714
 20
63.041667
 42
0.157079
  0
VERTEX
  8
0
 10
202.411937
 20
63.938974
 42
0.021354
  0
VERTEX
  8
0
 10
202.500000
 20
66.000000
 42
0.024329
  0
VERTEX
  8
0
 10
202.404134
 20
67.969050
 42
0.132776
  0
VERTEX
  8
0
 10
202.030525
 20
68.957720
 42
0.165608
  0
VERTEX
  8
0
 10
201.255393
 20
69.507880
 42
0.043650
  0
VERTEX
  8
0
 10
199.744314
 20
69.816971
 42
0.041776
  0
VERTEX
  8
0
 10
198.541341
 20
69.854297
 42
0.071980
  0
VERTEX
  8
0
 10
197.560460
 20
69.659344
 42
0.091869
  0
VERTEX
  8
0
 10
196.844008
 20
69.246147
 42
0.125156
  0
SEQEND
  0
POLYLINE
  8
0
 66
1
 70
1
  0
VERTEX
  8
0
 10
216.200000
 20
77.800000
 42
0.177486
  0
VERTEX
  8
0
 10
215.120258
 20
75.470834
 42
0.027151
  0
VERTEX
  8
0
 10
214.972231
 20
70.275103
 42
0.026750
  0
VERTEX
  8
0
 10
215.383483
 20
65.099576
 42
0.188509
  0
VERTEX
  8
0
 10
216.583823
 20
62.930433
 42
0.161254
  0
VERTEX
  8
0
 10
218.563012
 20
62.156012
 42
0.251179
  0
VERTEX
  8
0
 10
220.182831
 20
62.916540
 42
0.116420
  0
VERTEX
  8
0
 10
221.300476
 20
65.503134
 42
0.032005
  0
VERTEX
  8
0
 10
221.799984
 20
69.941286
 42
0.039468
  0
VERTEX
  8
0
 10
221.643658
 20
75.014003
 42
0.128048
  0
VERTEX
  8
0
 10
220.453435
 20
78.134278
 42
0.279985
  0
VERTEX
  8
0
 10
218.527563
 20
78.961463
 42
0.162687
  0
SEQEND
  0
POLYLINE
  8
0
 66
1
 70
1
  0
VERTEX
  8
0
 10
256.634385
 20
72.596460
 42
0.012062
  0
VERTEX
  8
0
 10
256.028183
 20
71.070328
 42
0.018430
  0
VERTEX
  8
0
 10
255.584050
 20
69.717094
 42
0.013355
  0
VERTEX
  8
0
 10
255.296103
 20
68.605928
 42
0.258607
  0
VERTEX
  8
0
 10
255.390736
 20
68.275931
 42
0.175037
  0
VERTEX
  8
0
 10
255.705519
 20
68.128185
 42
0.016110
  0
VERTEX
  8
0
 10
256.580246
 20
68.075588
 42
0.019260
  0
VERTEX
  8
0
 10
257.657121
 20
68.087083
 42
0.013907
  0
VERTEX
  8
0
 10
258.854576
 20
68.179471
 42
0.000000
  0
VERTEX
  8
0
 10
261.901428
 20
68.500000
 42
0.000000
  0
VERTEX
  8
0
 10
260.098225
 20
72.500000
 42
0.000000
  0
VERTEX
  8
0
 10
258.295022
 20
76.500000
 42
0.000000
  0
SEQEND
  0
POLYLINE
  8
0
 66
1
 70
1
  0
VERTEX
  8
0
 10
347.000000
 20
58.714286
 42
0.019809
  0
VERTEX
  8
0
 10
347.078813
 20
56.725753
 42
0.107581
  0
VERTEX
  8
0
 10
347.389151
 20
55.699152
 42
0.184114
  0
VERTEX
  8
0
 10
348.008481
 20
55.178824
 42
0.083844
  0
VERTEX
  8
0
 10
349.067388
 20
55.000000
 42
0.047809
  0
VERTEX
  8
0
 10
350.103247
 20
55.099273
 42
0.209345
  0
VERTEX
  8
0
 10
350.597942
 20
55.440493
 42
0.179286
  0
VERTEX
  8
0
 10
350.726552
 20
56.076754
 42
0.034009
  0
VERTEX
  8
0
 10
350.460064
 20
57.250000
 42
0.032197
  0
VERTEX
  8
0
 10
350.100257
 20
58.218487
 42
0.021958
  0
VERTEX
  8
0
 10
349.574451
 20
59.269196
 42
0.022183
  0
VERTEX
  8
0
 10
348.975141
 20
60.241759
 42
0.040953
  0
VERTEX
  8
0
 10
348.392677
 20
60.964286
 42
0.053213
  0
VERTEX
  8
0
 10
347.642648
 20
61.601342
 42
0.427029
  0
VERTEX
  8
0
 10
347.245180
 20
61.516886
 42
0.130794
  0
VERTEX
  8
0
 10
347.035934
 20
60.826133
 42
0.008507
  0
SEQEND
  0
POLYLINE
  8
0
 66
1
 70
1
  0
VERTEX
  8
0
 10
258.433891
 20
41.688319
 42
0.089186
  0
VERTEX
  8
0
 10
257.961010
 20
39.209530
 42
0.044887
  0
VERTEX
  8
0
 10
258.213517
 20
36.024313
 42
0.043364
  0
VERTEX
  8
0
 10
258.938518
 20
33.248724
 42
0.317195
  0
VERTEX
  8
0
 10
260.000000
 20
32.500000
 42
0.198387
  0
VERTEX
  8
0
 10
260.705458
 20
32.791374
 42
0.123448
  0
VERTEX
  8
0
 10
261.173729
 20
33.569444
 42
0.059651
  0
VERTEX
  8
0
 10
261.430265
 20
35.004018
 42
0.014449
  0
VERTEX
  8
0
 10
261.500000
 20
37.416667
 42
0.040216
  0
VERTEX
  8
0
 10
261.247540
 20
40.550362
 42
0.115961
  0
VERTEX
  8
0
 10
260.421007
 20
42.551614
 42
0.377738
  0
VERTEX
  8
0
 10
259.398009
 20
42.786722
 42
0.178859
  0
SEQEND
  0
ENDSEC
  0
EOF
